<?xml version="1.0" standalone="no"?>
<!DOCTYPE svg PUBLIC "-//W3C//DTD SVG 20010904//EN"
 "http://www.w3.org/TR/2001/REC-SVG-20010904/DTD/svg10.dtd">
<svg version="1.0" xmlns="http://www.w3.org/2000/svg"
 width="490.000000pt" height="408.000000pt" viewBox="0 0 490.000000 408.000000"
 preserveAspectRatio="xMidYMid meet">

<g transform="translate(0.000000,408.000000) scale(0.100000,-0.100000)"
fill="#000000" stroke="none">
<path d="M2195 4039 c-260 -27 -551 -138 -770 -294 -97 -69 -247 -209 -312
-290 -465 -583 -482 -1388 -41 -1987 33 -46 106 -128 162 -183 511 -503 1293
-609 1918 -259 417 234 694 615 795 1093 23 109 27 150 27 311 0 206 -18 327
-75 503 -87 267 -266 541 -467 713 -345 298 -790 439 -1237 393z m134 -82 c0
-23 -4 -61 -7 -85 l-7 -43 -112 -50 c-137 -60 -261 -131 -370 -209 l-82 -59
-108 -6 c-147 -9 -265 -31 -346 -65 -47 -20 -69 -25 -72 -17 -3 7 -9 25 -15
42 -11 28 -9 32 72 107 209 197 461 331 740 394 100 23 283 45 301 36 4 -2 7
-22 6 -45z m286 27 c235 -35 489 -142 681 -285 96 -72 214 -180 214 -195 0 -8
-7 -32 -16 -55 -19 -47 -12 -47 -144 0 -103 36 -238 61 -334 61 l-71 0 -100
75 c-110 82 -288 178 -405 220 l-75 26 3 77 c2 42 5 83 7 90 5 14 90 9 240
-14z m-153 -234 c122 -49 221 -102 325 -176 129 -92 124 -79 70 -171 -25 -43
-60 -109 -78 -148 -18 -38 -33 -71 -34 -73 -1 -1 -35 13 -75 32 -110 53 -198
69 -343 63 -155 -6 -245 -35 -383 -124 -21 -13 -22 -10 -54 79 -17 51 -47 127
-66 168 -19 41 -33 79 -30 86 6 16 203 147 280 186 102 53 250 117 269 117 9
1 63 -17 119 -39z m-685 -350 c18 -36 49 -111 69 -168 20 -56 40 -104 44 -107
3 -2 -19 -31 -51 -64 -32 -34 -73 -87 -93 -120 -48 -78 -90 -191 -77 -204 7
-7 13 -4 17 9 50 144 117 249 214 337 70 63 195 129 290 154 87 23 254 23 340
0 71 -19 200 -75 200 -87 0 -4 15 -14 33 -21 79 -32 222 -211 265 -331 16 -46
25 -57 36 -40 8 13 -48 134 -91 198 -23 33 -75 92 -116 130 l-74 70 19 49 c11
28 47 99 81 158 l62 109 105 -6 c189 -10 388 -74 448 -143 64 -75 134 -185
184 -289 l51 -107 -6 -86 c-8 -117 -47 -229 -130 -376 -19 -33 -33 -69 -32
-80 20 -200 25 -332 15 -435 -20 -223 -19 -221 -163 -324 -69 -49 -414 -233
-422 -224 -1 2 -28 45 -59 97 -58 95 -124 186 -184 252 l-32 37 47 28 c67 39
191 167 235 242 36 63 81 192 93 265 l6 37 199 0 c127 0 200 4 200 10 0 6 -76
10 -208 10 l-209 0 -12 -67 c-54 -294 -280 -524 -569 -579 -157 -30 -300 -10
-451 63 -197 95 -360 311 -387 514 l-7 49 -208 0 c-133 0 -209 -4 -209 -10 0
-6 73 -10 199 -10 l199 0 7 -47 c23 -159 139 -344 280 -447 38 -29 62 -53 58
-60 -4 -6 -32 -42 -63 -81 -31 -38 -96 -123 -144 -187 l-88 -117 -138 69
c-112 56 -314 182 -391 243 -36 28 -55 414 -30 595 l12 83 -65 132 c-65 132
-89 203 -101 308 -6 48 -2 66 29 148 67 173 171 338 245 388 41 28 129 61 196
74 45 9 265 28 290 25 6 -1 24 -31 42 -66z m1846 -25 c79 -106 147 -225 196
-347 41 -100 40 -106 -20 -91 -28 8 -36 18 -66 86 -44 102 -91 179 -163 276
l-59 78 16 42 c9 22 20 41 24 41 4 0 37 -38 72 -85z m-2438 36 c5 -25 -2 -40
-50 -102 -70 -90 -115 -170 -156 -279 -18 -47 -37 -90 -41 -96 -9 -12 -68 -25
-68 -15 0 22 83 209 126 285 62 108 163 248 175 241 4 -3 10 -18 14 -34z
m2670 -531 c21 -8 41 -74 64 -215 41 -249 10 -542 -83 -783 -33 -86 -102 -232
-110 -232 -4 0 -128 69 -133 74 -1 1 4 41 12 89 24 147 28 275 15 433 l-12
149 46 85 c61 116 92 200 106 295 20 134 17 126 48 119 15 -4 36 -10 47 -14z
m-2921 -57 c12 -102 47 -210 107 -329 l59 -117 -11 -95 c-11 -93 -7 -386 7
-499 l6 -51 -42 -31 c-24 -17 -49 -31 -57 -31 -17 0 -91 152 -128 264 -78 234
-103 516 -64 741 26 151 39 194 62 198 53 10 54 10 61 -50z m1284 -1108 c131
-28 310 -13 417 34 l45 20 62 -72 c54 -63 140 -186 206 -298 l22 -36 -58 -83
c-70 -104 -165 -200 -257 -263 -90 -61 -148 -71 -382 -65 l-171 4 -49 39 c-86
69 -197 189 -260 282 -35 50 -63 95 -63 98 0 11 119 172 218 296 l84 106 60
-24 c32 -13 89 -31 126 -38z m-1033 -76 c117 -84 244 -159 377 -223 123 -59
128 -63 166 -121 65 -100 160 -212 242 -285 l78 -68 -22 -22 -23 -21 -119 39
c-286 94 -556 278 -735 500 -81 101 -133 182 -122 192 11 12 77 58 83 59 3 1
37 -22 75 -50z m2514 -25 c7 -6 -65 -111 -135 -195 -171 -206 -419 -377 -674
-467 -129 -45 -196 -58 -215 -42 -40 33 -37 46 22 85 82 54 179 157 254 268
l67 98 154 77 c148 74 285 159 358 220 l35 30 65 -36 c36 -19 67 -37 69 -38z
m-1084 -704 c10 -11 16 -22 13 -25 -3 -3 -64 -11 -136 -17 -102 -9 -161 -9
-259 0 -159 15 -178 19 -161 39 9 12 26 13 77 8 86 -9 336 -7 386 4 59 13 60
13 80 -9z"/>
<path d="M2050 3014 c-30 -14 -72 -41 -92 -61 -31 -30 -35 -39 -27 -56 10 -18
12 -18 37 6 15 14 42 32 59 41 152 76 316 -42 259 -187 -30 -77 -79 -116 -173
-141 -35 -8 -85 -27 -113 -41 -45 -23 -49 -28 -40 -46 6 -11 17 -18 23 -15 56
24 126 37 178 34 49 -2 59 0 59 13 0 25 47 69 74 69 16 0 34 13 55 39 81 103
79 234 -5 313 -67 62 -198 77 -294 32z"/>
<path d="M2582 2980 c-80 -19 -152 -114 -152 -202 0 -90 27 -123 230 -280 111
-85 157 -137 166 -185 4 -21 15 -49 25 -62 11 -13 19 -37 19 -54 0 -26 2 -28
16 -16 23 19 53 82 60 128 16 97 -19 148 -191 282 -174 134 -215 184 -215 262
0 44 36 97 80 119 38 19 22 22 -38 8z"/>
<path d="M1227 2691 c-37 -10 -80 -27 -95 -38 -49 -37 -36 -89 28 -108 20 -6
19 -3 -10 17 -50 34 -49 52 2 76 67 33 166 45 312 40 143 -6 210 -24 227 -62
8 -20 9 -20 6 3 -7 75 -291 118 -470 72z"/>
<path d="M3206 2689 c-130 -14 -226 -56 -226 -99 0 -21 45 -60 69 -59 12 0 11
2 -4 9 -29 11 -48 37 -41 55 17 46 194 81 354 71 126 -8 202 -31 219 -66 7
-14 13 -19 13 -12 0 28 -21 50 -68 70 -44 19 -74 25 -202 36 -19 2 -70 -1
-114 -5z"/>
<path d="M2257 2592 c-25 -27 -22 -59 7 -66 13 -3 44 -25 69 -49 53 -52 75
-121 58 -183 -11 -40 -8 -54 13 -54 7 0 32 -13 54 -30 23 -16 44 -30 46 -30 2
0 13 21 23 48 53 138 -10 284 -154 356 -62 31 -94 33 -116 8z"/>
<path d="M1340 2561 c0 -10 12 -30 26 -45 36 -35 95 -36 129 -1 28 27 33 65
10 65 -8 0 -15 -7 -15 -15 0 -8 -11 -22 -25 -31 -32 -21 -72 -11 -87 21 -13
29 -38 33 -38 6z"/>
<path d="M3236 2561 c-20 -32 36 -91 86 -91 35 0 88 48 88 79 0 27 -27 27 -35
1 -4 -11 -17 -27 -30 -36 -28 -18 -53 -9 -83 32 -12 18 -21 23 -26 15z"/>
<path d="M1906 2504 c-73 -76 -97 -202 -55 -294 70 -155 277 -231 462 -169 77
25 84 32 61 56 -11 10 -28 30 -40 45 l-21 27 -49 -25 c-162 -80 -356 -3 -389
155 -10 47 11 113 51 159 29 34 31 42 20 57 -12 17 -15 16 -40 -11z"/>
<path d="M2265 2237 c17 -8 44 -29 60 -48 126 -141 153 -155 292 -146 89 5
173 36 218 81 28 28 34 80 12 111 -13 16 -14 15 -20 -19 -13 -78 -86 -135
-175 -136 -57 0 -96 18 -166 79 -63 53 -118 77 -201 86 -49 6 -49 6 -20 -8z"/>
<path d="M10 290 l0 -271 148 3 c146 3 150 4 198 33 124 77 153 306 52 421
-58 66 -95 78 -255 82 l-143 4 0 -272z m267 161 c53 -24 75 -66 80 -151 4 -54
0 -73 -19 -110 -30 -58 -72 -80 -155 -80 l-63 0 0 180 0 180 58 0 c34 0 74 -8
99 -19z"/>
<path d="M716 409 c-15 -12 -32 -31 -36 -43 -7 -17 -9 -14 -9 17 l-1 37 -55 0
-55 0 0 -200 0 -200 55 0 55 0 0 129 c0 122 1 132 23 157 20 23 32 27 70 27
l47 -1 0 49 c0 49 0 49 -34 49 -19 0 -45 -9 -60 -21z"/>
<path d="M965 418 c-86 -31 -124 -92 -125 -201 0 -134 68 -207 195 -207 67 0
101 13 143 53 80 77 77 245 -6 320 -46 41 -143 58 -207 35z m124 -96 c50 -49
49 -155 -1 -209 -30 -32 -72 -30 -109 6 -26 26 -29 36 -29 91 0 91 31 137 93
139 10 1 31 -11 46 -27z"/>
<path d="M1494 416 c-17 -8 -40 -27 -52 -42 l-21 -29 -1 38 0 37 -50 0 -50 0
0 -200 0 -200 55 0 55 0 0 135 c0 131 1 137 25 160 32 33 74 33 106 -1 22 -24
24 -34 27 -160 l4 -134 49 0 49 0 0 158 c0 140 -2 161 -20 190 -34 55 -111 76
-176 48z"/>
<path d="M1908 420 c-83 -25 -131 -98 -132 -201 -1 -133 71 -209 198 -209 77
0 138 27 166 72 11 18 20 36 20 41 0 4 -22 7 -50 7 -37 0 -55 -5 -70 -20 -45
-45 -140 -13 -156 53 l-6 27 141 0 141 0 0 48 c0 52 -26 117 -58 145 -44 40
-131 56 -194 37z m121 -96 c17 -14 31 -34 31 -45 0 -17 -8 -19 -90 -19 -49 0
-90 2 -90 5 0 4 7 20 16 36 27 53 86 63 133 23z"/>
<path d="M2495 412 c-74 -35 -100 -93 -70 -156 19 -40 55 -59 142 -76 71 -14
100 -38 84 -68 -11 -21 -60 -35 -88 -25 -10 3 -28 15 -39 25 -17 15 -33 18
-73 16 l-51 -3 17 -34 c30 -58 64 -75 152 -79 82 -4 121 8 168 51 48 43 37
134 -18 163 -16 8 -58 21 -95 30 -80 18 -104 30 -104 49 0 44 78 60 123 25 26
-20 117 -29 117 -11 0 19 -48 77 -75 90 -48 24 -143 25 -190 3z"/>
<path d="M2955 415 c-84 -30 -132 -119 -122 -223 12 -115 85 -182 199 -182
126 0 198 76 198 207 -1 158 -128 250 -275 198z m109 -76 c70 -32 75 -202 7
-239 -33 -17 -67 -11 -94 16 -51 50 -45 170 10 213 30 24 42 26 77 10z"/>
<path d="M3400 403 c-72 -37 -100 -88 -100 -182 0 -82 24 -138 76 -177 34 -27
44 -29 120 -29 68 0 87 4 110 21 36 26 61 62 70 97 6 27 6 27 -45 27 -40 0
-52 -4 -61 -20 -18 -34 -56 -53 -90 -45 -45 10 -70 56 -70 127 0 49 4 62 28
88 19 22 37 31 60 32 33 1 72 -25 72 -49 0 -9 16 -13 56 -13 56 0 56 0 49 27
-17 71 -74 112 -164 120 -47 4 -64 0 -111 -24z"/>
<path d="M3867 416 c-48 -18 -74 -41 -97 -86 -58 -114 -16 -263 86 -306 49
-21 137 -18 184 6 43 22 66 50 80 99 l9 31 -52 0 c-47 0 -54 -3 -69 -30 -30
-53 -98 -50 -134 5 -26 39 -25 136 2 171 11 16 32 31 46 35 33 9 84 -14 93
-40 5 -18 14 -21 60 -21 l54 0 -9 29 c-13 46 -39 78 -78 97 -49 23 -128 28
-175 10z"/>
<path d="M4305 412 c-76 -36 -115 -103 -115 -194 2 -135 72 -208 201 -208 82
0 138 26 168 80 l22 40 -54 0 c-41 0 -58 -5 -72 -20 -27 -30 -98 -28 -130 5
-14 13 -25 36 -25 50 l0 25 141 0 142 0 -6 54 c-11 113 -70 174 -175 182 -42
4 -67 0 -97 -14z m139 -84 c13 -13 27 -33 31 -45 6 -23 5 -23 -84 -23 -83 0
-91 2 -91 19 0 27 56 71 90 71 16 0 40 -10 54 -22z"/>
<path d="M4824 419 c-11 -6 -28 -22 -37 -37 l-16 -27 -1 33 0 32 -55 0 -55 0
0 -200 0 -200 55 0 55 0 0 129 c0 121 2 132 23 157 18 21 32 27 65 27 l42 0 0
48 c0 47 -1 49 -27 48 -16 0 -37 -5 -49 -10z"/>
</g>
</svg>
