<?xml version="1.0" standalone="no"?>
<!DOCTYPE svg PUBLIC "-//W3C//DTD SVG 20010904//EN"
 "http://www.w3.org/TR/2001/REC-SVG-20010904/DTD/svg10.dtd">
<svg version="1.0" xmlns="http://www.w3.org/2000/svg"
 width="630.000000pt" height="630.000000pt" viewBox="0 0 630.000000 630.000000"
 preserveAspectRatio="xMidYMid meet">

<g transform="translate(0.000000,630.000000) scale(0.100000,-0.100000)"
fill="#000000" stroke="none">
<path d="M3957 5076 c-57 -21 -147 -78 -170 -108 l-20 -27 -27 21 -28 20 -69
-22 c-37 -13 -72 -26 -78 -30 -5 -5 -37 -13 -70 -19 -33 -6 -64 -17 -70 -24
-5 -8 -28 -17 -50 -20 -22 -4 -62 -18 -89 -32 l-50 -26 -86 86 c-84 83 -118
101 -145 76 -6 -4 -59 -25 -120 -46 -125 -44 -162 -66 -171 -101 -5 -20 1 -33
30 -63 26 -26 36 -46 36 -68 0 -27 -4 -31 -37 -37 -103 -16 -208 -96 -258
-196 -10 -19 -19 -37 -21 -39 -2 -2 -26 17 -53 42 -43 40 -56 47 -91 47 -40 0
-154 -34 -178 -53 -9 -7 -18 -4 -33 9 -17 16 -22 16 -29 4 -10 -16 -10 -16
-14 17 -6 50 -52 73 -113 57 -40 -11 -26 -27 18 -21 54 7 58 -7 20 -80 -18
-34 -38 -100 -50 -162 -27 -133 -26 -147 5 -86 76 148 150 223 267 267 122 47
168 29 221 -86 l22 -48 18 48 c56 151 175 254 291 254 l35 0 0 59 c0 54 -3 62
-30 84 -59 50 -36 73 135 132 69 25 130 47 134 49 4 3 13 1 21 -4 12 -7 11
-28 -4 -142 -9 -73 -30 -200 -46 -283 -32 -161 -36 -263 -17 -359 13 -64 37
-89 37 -38 0 17 3 37 6 46 9 23 50 20 67 -5 15 -20 15 -20 41 14 30 39 32 47
11 47 -30 0 -72 29 -84 57 -17 43 -20 126 -7 195 17 87 69 182 143 256 66 67
125 99 187 104 23 1 41 9 46 19 6 10 28 19 55 23 25 4 77 20 117 37 116 48
134 38 95 -49 -37 -86 -44 -130 -10 -65 62 116 176 217 280 248 49 15 55 14
115 -6 35 -12 70 -22 78 -24 16 -2 18 -10 27 -98 4 -47 1 -62 -13 -78 -9 -10
-12 -19 -7 -19 57 0 -60 -232 -161 -317 -60 -51 -125 -75 -212 -76 -63 -1 -66
1 -106 40 -23 23 -43 55 -47 74 l-8 34 -7 -40 c-4 -22 -21 -96 -38 -165 -33
-139 -58 -186 -137 -264 -28 -27 -47 -54 -44 -59 3 -6 1 -7 -4 -4 -9 6 -103
-38 -103 -48 0 -2 14 1 30 7 22 7 34 7 45 -2 13 -10 12 -16 -1 -43 -19 -36
-55 -139 -51 -143 2 -2 15 23 31 55 47 100 167 208 270 241 57 19 88 17 158
-13 46 -19 65 -49 74 -113 5 -44 3 -55 -14 -72 -16 -16 -18 -22 -6 -26 22 -9
17 -34 -27 -125 -91 -190 -219 -282 -368 -264 -63 7 -100 34 -128 94 l-19 40
-18 -103 c-21 -118 -49 -206 -84 -262 -55 -89 -181 -190 -281 -224 -43 -15
-123 -16 -138 -1 -8 8 -24 -3 -57 -39 -89 -95 -215 -139 -279 -97 -31 20 -57
94 -57 161 l0 43 -42 -24 c-107 -58 -172 -57 -244 6 l-47 41 -14 -32 c-19 -47
-150 -172 -208 -201 -33 -16 -67 -24 -102 -24 -44 0 -57 5 -83 30 -33 31 -75
112 -82 154 -3 22 -8 17 -53 -41 -54 -71 -102 -107 -178 -132 -55 -18 -128
-21 -144 -5 -23 23 -23 -117 1 -172 8 -19 -17 -49 -42 -49 -9 0 -82 -23 -162
-51 -186 -64 -188 -65 -196 -45 -3 9 -2 22 4 29 36 43 122 356 129 467 3 41 7
101 10 132 4 50 2 58 -16 70 -41 25 -19 68 35 68 17 0 78 22 135 49 321 151
466 147 519 -12 6 -22 10 -52 6 -68 -3 -16 -4 -29 -2 -29 2 0 22 29 44 63 76
121 191 197 308 205 60 4 61 4 91 -34 39 -51 53 -77 54 -106 l0 -23 11 25 c90
200 165 274 293 287 l55 6 0 54 c0 44 -4 58 -25 79 -14 14 -32 23 -39 21 -16
-6 -12 19 7 44 14 19 94 61 122 64 40 5 39 7 -5 19 -30 8 -47 8 -52 1 -5 -6
-8 -5 -8 2 0 7 -13 25 -28 40 -18 18 -26 36 -24 51 6 38 -13 24 -37 -27 -26
-58 -135 -173 -193 -202 -57 -29 -128 -49 -128 -37 0 6 -9 8 -20 5 -39 -10
-135 124 -141 198 -1 11 -5 -2 -10 -30 -10 -56 -3 -135 12 -135 6 0 8 -4 4 -9
-3 -5 -1 -12 5 -16 5 -3 10 -14 10 -24 0 -19 -17 -28 -95 -52 -22 -7 -52 -20
-67 -29 -22 -13 -25 -19 -15 -30 10 -12 9 -12 -4 -2 -14 10 -24 9 -53 -4 -19
-10 -33 -20 -31 -24 2 -3 -4 -6 -13 -7 -9 -1 -31 -5 -48 -9 -19 -3 -34 -2 -38
5 -4 6 -2 48 5 93 6 46 13 92 14 103 2 11 6 38 10 59 l8 39 -29 -7 c-16 -4
-32 -10 -35 -14 -3 -4 -14 -54 -24 -112 -9 -58 -22 -130 -27 -160 -5 -30 -13
-59 -19 -66 -5 -7 -49 -24 -97 -39 -48 -14 -126 -42 -174 -62 -115 -47 -147
-37 -89 29 41 47 56 82 76 173 10 44 21 93 26 109 7 21 6 32 -3 37 -9 6 -18
-18 -34 -91 -26 -122 -39 -154 -81 -204 -36 -43 -42 -80 -18 -106 14 -15 11
-19 -32 -39 -27 -12 -68 -25 -93 -29 -35 -6 -48 -13 -58 -35 -13 -27 -4 -62
21 -78 18 -12 6 -205 -18 -294 -59 -219 -79 -283 -96 -316 -10 -21 -19 -48
-19 -60 0 -16 61 -84 202 -225 111 -112 207 -202 212 -201 6 1 10 -3 9 -9 -1
-6 9 -22 22 -34 14 -13 25 -19 25 -14 0 5 6 -2 13 -16 8 -14 19 -24 25 -23 7
2 11 -1 9 -5 -3 -11 115 -132 124 -126 4 2 11 -1 15 -7 5 -8 2 -10 -7 -4 -8 4
-1 -5 14 -20 26 -25 31 -26 53 -14 24 12 24 13 5 24 -14 7 -17 15 -12 24 7 11
10 10 14 -5 4 -16 5 -16 6 4 0 12 -4 22 -9 22 -6 0 -6 6 2 13 10 12 15 12 27
0 7 -8 20 -12 27 -9 8 3 11 0 8 -9 -4 -10 4 -14 35 -13 37 0 40 2 24 14 -16
12 -16 13 7 8 35 -8 51 -7 83 5 21 8 27 16 22 30 -3 11 0 21 9 24 10 4 12 0 9
-14 -4 -15 0 -19 18 -19 16 0 20 3 12 8 -9 6 -7 12 7 22 11 8 20 21 20 30 0
13 2 13 10 0 5 -9 5 -17 -1 -21 -6 -3 -3 -12 7 -20 10 -8 15 -9 11 -3 -4 7 2
23 13 37 22 28 26 47 9 47 -5 0 -7 5 -3 11 4 7 0 9 -14 5 -13 -5 -22 -1 -26
11 -4 10 -3 19 3 21 5 2 7 10 4 18 -7 20 20 14 29 -6 4 -10 7 -6 7 13 1 15 -3
27 -9 27 -5 0 -19 9 -31 21 l-21 21 21 -7 c12 -4 22 -2 22 4 3 26 4 30 11 37
7 6 6 -6 -4 -46 -2 -12 8 -14 53 -13 31 2 69 8 85 14 16 7 35 13 42 15 8 1 19
10 26 20 7 9 18 14 24 10 7 -4 12 -2 12 4 0 6 4 9 9 6 4 -3 17 4 27 17 13 14
14 18 3 9 -14 -10 -21 -9 -40 8 l-24 19 33 1 c18 0 32 5 32 13 0 6 5 4 11 -6
10 -18 12 -18 30 -1 18 16 20 16 44 -6 29 -27 55 -34 55 -16 0 8 10 11 30 8
16 -2 27 -9 24 -14 -3 -5 -13 -7 -21 -4 -8 3 -11 1 -8 -4 3 -6 -1 -10 -9 -10
-9 0 -16 -5 -16 -10 0 -6 3 -9 8 -8 4 2 8 -1 10 -7 6 -18 35 -45 43 -40 4 3
10 1 14 -5 8 -13 112 -5 130 10 6 5 15 7 19 3 4 -4 4 1 0 11 -5 14 -4 17 4 12
7 -4 12 -2 12 6 0 10 2 10 9 0 6 -11 16 -7 45 18 20 18 33 36 30 41 -3 5 3 9
13 10 16 0 16 1 -2 9 -11 5 -14 9 -6 9 11 1 11 4 1 16 -8 9 -9 15 -2 15 6 0
14 -4 17 -10 6 -9 40 -9 40 0 0 3 17 23 37 44 31 33 40 37 52 27 8 -7 20 -10
25 -7 5 4 12 2 16 -4 3 -5 -2 -10 -12 -10 -13 -1 -9 -6 12 -17 21 -12 52 -17
107 -16 68 1 77 -1 81 -19 4 -13 10 -17 18 -12 7 4 10 3 6 -3 -8 -13 91 -109
122 -118 60 -18 125 -2 214 53 41 26 46 38 20 45 -10 2 -4 3 12 3 19 -1 29 4
27 12 -1 6 4 11 10 10 8 -2 12 5 10 16 -7 39 44 49 58 11 5 -14 15 -25 21 -25
7 0 9 3 6 7 -4 3 -2 12 4 19 7 9 19 10 46 2 20 -5 39 -6 42 -1 3 4 13 9 21 11
26 5 100 45 125 68 13 12 26 19 29 16 3 -3 6 0 6 7 0 8 -8 11 -20 8 -11 -3
-17 -1 -14 4 3 5 17 8 32 7 20 -2 29 3 40 26 9 17 10 31 5 35 -5 3 -12 14 -16
24 -4 10 -11 15 -17 12 -5 -3 -10 -1 -10 4 0 24 42 -2 53 -33 7 -18 8 -18 25
2 28 33 45 60 41 63 -2 2 4 15 14 29 20 28 22 40 6 40 -5 0 -8 -4 -5 -8 2 -4
-5 -9 -17 -9 -17 -2 -19 0 -7 7 8 5 16 14 16 20 3 23 5 24 13 12 10 -17 41 43
42 85 1 15 4 39 8 53 5 17 3 31 -6 42 -10 11 -12 22 -5 33 7 14 10 12 15 -14
4 -17 11 -31 17 -31 6 0 22 -12 35 -26 13 -14 25 -25 27 -24 2 1 15 -3 30 -9
28 -11 78 -6 111 11 11 6 17 5 17 -3 0 -7 9 -5 26 6 14 9 32 14 39 11 16 -6
76 32 83 53 3 10 -2 11 -19 6 -21 -7 -22 -6 -7 9 9 8 14 24 11 34 -3 15 1 18
25 18 38 -1 47 -10 27 -26 -10 -8 -15 -9 -15 -1 0 6 -4 11 -9 11 -9 0 -7 -38
2 -47 6 -5 57 56 57 68 0 6 -4 7 -10 4 -5 -3 -10 -1 -10 4 0 6 5 11 10 11 6 0
10 7 10 15 0 8 8 15 18 15 20 0 46 36 36 52 -4 7 -3 8 4 4 8 -5 12 0 12 13 0
12 4 21 9 21 12 0 29 51 24 68 -3 6 -9 10 -14 6 -10 -6 8 45 22 62 7 8 6 14
-3 17 -8 4 -7 6 5 6 12 1 17 9 17 29 -1 73 -36 142 -72 142 -10 0 -18 5 -18
11 0 5 5 7 12 3 7 -4 8 -3 4 4 -4 6 -13 9 -21 5 -10 -3 -15 1 -15 14 0 33 -21
45 -43 25 -19 -17 -20 -16 -7 7 10 20 9 26 -7 43 -11 11 -28 21 -39 22 -10 2
-18 11 -18 20 2 23 -17 20 -23 -4 -6 -23 -32 -26 -54 -7 -8 6 -12 11 -10 10 7
-4 31 18 31 28 0 14 -28 11 -34 -3 -3 -7 -2 1 1 17 3 17 10 33 15 36 11 7 38
57 38 70 0 5 -8 9 -17 10 -14 0 -13 2 5 9 28 12 29 37 1 45 -32 11 -16 16 18
6 21 -6 35 -5 43 2 10 9 12 7 7 -10 -3 -13 -1 -23 4 -23 5 0 9 9 9 20 0 11 7
20 16 20 9 0 12 5 8 13 -5 9 -4 9 6 0 10 -9 16 -8 28 3 8 8 17 12 21 8 3 -4 0
-9 -7 -11 -7 -3 -17 -16 -22 -29 -6 -15 -15 -22 -25 -18 -9 4 -15 0 -15 -10 0
-39 162 -40 245 0 40 19 125 93 125 110 0 5 9 15 20 22 11 7 20 17 20 23 0 6
12 26 26 44 20 27 24 41 19 65 -4 16 -14 35 -23 41 -15 9 -15 10 2 5 14 -5 17
-2 12 10 -4 12 -2 15 9 10 8 -3 15 -1 15 5 0 6 4 8 9 4 15 -9 23 13 28 74 9
114 1 133 -100 237 -75 78 -93 92 -98 77 -3 -10 -1 -22 5 -26 6 -5 0 -5 -13
-2 -18 6 -22 4 -16 -6 6 -11 5 -11 -5 -2 -10 9 -9 17 3 42 13 27 13 32 0 42
-12 10 -17 10 -25 -2 -8 -12 -9 -12 -5 1 6 20 -11 52 -24 45 -5 -4 -9 1 -9 9
0 8 -6 19 -13 23 -7 4 -23 24 -35 43 -12 19 -97 110 -189 201 -147 145 -175
169 -226 188 -66 24 -106 26 -160 7z m631 -519 c-14 -11 -15 -14 -1 -23 11 -7
8 -9 -14 -10 -15 -1 -23 1 -16 3 7 2 10 10 7 18 -5 11 7 19 36 24 3 0 -3 -5
-12 -12z m-104 -16 c7 -11 -3 -41 -14 -41 -4 0 -10 11 -12 25 -5 25 14 36 26
16z m-149 -40 c3 -5 2 -12 -3 -15 -5 -3 -9 1 -9 9 0 17 3 19 12 6z m278 -40
c3 -13 1 -18 -9 -14 -7 2 -10 11 -7 19 4 10 0 13 -13 8 -15 -5 -16 -4 -4 4 17
13 26 8 33 -17z m-50 -1 c3 -11 1 -18 -4 -14 -5 3 -9 12 -9 20 0 20 7 17 13
-6z m121 -25 c-4 -8 -8 -15 -10 -15 -2 0 -4 7 -4 15 0 8 4 15 10 15 5 0 7 -7
4 -15z m61 -14 c3 -5 0 -13 -6 -17 -7 -4 -9 -3 -5 4 3 5 0 13 -6 15 -9 4 -10
6 -1 6 6 1 14 -3 18 -8z m-195 -11 c0 -5 -2 -10 -4 -10 -3 0 -8 5 -11 10 -3 6
-1 10 4 10 6 0 11 -4 11 -10z m47 -32 c-3 -8 -6 -5 -6 6 -1 11 2 17 5 13 3 -3
4 -12 1 -19z m114 13 c7 11 9 11 9 1 0 -7 4 -10 10 -7 6 3 7 -1 4 -10 -4 -11
-2 -14 9 -9 8 3 18 0 22 -5 3 -6 11 -8 17 -5 7 4 8 2 4 -5 -4 -6 -11 -9 -16
-6 -5 3 -13 -3 -19 -12 -5 -10 -13 -15 -17 -11 -4 4 -1 15 7 25 8 9 9 14 2 10
-6 -4 -15 -1 -20 7 -4 8 -12 15 -18 15 -5 0 -10 4 -11 11 -2 7 -1 6 3 -1 4 -8
8 -7 14 2z m-138 -16 c-3 -9 -8 -14 -10 -11 -3 3 -2 9 2 15 9 16 15 13 8 -4z
m-423 -5 c0 -5 -5 -10 -11 -10 -5 0 -7 5 -4 10 3 6 8 10 11 10 2 0 4 -4 4 -10z
m373 -5 c-3 -9 -8 -14 -10 -11 -3 3 -2 9 2 15 9 16 15 13 8 -4z m157 5 c0 -5
-7 -10 -16 -10 -9 0 -12 -5 -8 -12 5 -7 3 -8 -6 -3 -10 6 -9 11 5 22 22 16 25
16 25 3z m-1019 -35 c-1 -15 -24 -12 -29 3 -3 9 2 13 12 10 10 -1 17 -7 17
-13z m534 5 c3 -5 -1 -10 -10 -10 -9 0 -13 5 -10 10 3 6 8 10 10 10 2 0 7 -4
10 -10z m418 -14 c3 -8 0 -19 -7 -25 -10 -9 -12 -6 -8 14 5 29 8 31 15 11z
m-818 -6 c3 -5 1 -10 -4 -10 -6 0 -11 5 -11 10 0 6 2 10 4 10 3 0 8 -4 11 -10z
m-121 -15 c-7 -16 -24 -21 -24 -6 0 8 7 13 27 20 1 1 0 -6 -3 -14z m611 5 c3
-6 -1 -7 -9 -4 -18 7 -21 14 -7 14 6 0 13 -4 16 -10z m452 -19 c9 -12 12 -12
13 -3 0 7 4 11 10 7 11 -7 2 -34 -17 -53 -13 -14 -17 -4 -16 36 1 6 -10 12
-23 12 -16 0 -22 4 -18 14 7 17 33 10 51 -13z m-1700 -7 c-9 -9 -28 6 -21 18
4 6 10 6 17 -1 6 -6 8 -13 4 -17z m1643 -27 c0 -6 -3 -7 -7 -4 -3 4 -13 1 -22
-6 -14 -10 -14 -10 -4 4 7 9 10 19 6 23 -4 4 0 4 10 0 9 -3 17 -11 17 -17z
m104 -22 c-4 -8 -12 -15 -20 -15 -17 0 -18 17 -1 23 22 9 27 7 21 -8z m-304
-24 c0 -10 7 -25 17 -32 15 -13 15 -12 5 8 -11 20 -10 21 21 16 38 -6 49 -13
19 -13 -12 0 -22 -5 -22 -10 0 -6 -11 -16 -25 -22 -19 -8 -22 -14 -14 -24 16
-20 14 -73 -4 -92 -16 -15 -17 -14 -18 11 -1 15 -2 33 -3 40 -1 6 5 11 12 10
6 -2 12 2 12 7 0 6 -4 10 -10 10 -5 0 -10 9 -10 19 0 11 5 23 10 26 15 9 12
23 -10 45 l-20 20 20 0 c13 0 20 -7 20 -19z m-421 -22 c-16 -10 -23 -4 -14 10
3 6 11 8 17 5 6 -4 5 -9 -3 -15z m551 6 c-7 -9 -15 -13 -17 -11 -7 7 7 26 19
26 6 0 6 -6 -2 -15z m-43 -40 c0 -8 -3 -13 -5 -10 -3 3 -14 -2 -24 -12 -17
-15 -18 -15 -18 1 0 9 5 14 10 11 6 -3 13 1 16 9 8 20 21 21 21 1z m111 8 c-2
-5 2 -8 7 -8 6 0 9 5 7 10 -2 6 0 7 4 3 11 -11 16 -70 5 -64 -5 4 -11 2 -13
-4 -2 -6 -12 -5 -27 3 -24 12 -26 33 -3 31 9 -1 10 2 2 10 -5 7 -7 16 -3 19 9
9 24 9 21 0z m72 1 c0 -8 -19 -13 -24 -6 -3 5 1 9 9 9 8 0 15 -2 15 -3z m-336
-12 c3 -5 -1 -9 -9 -9 -8 0 -12 4 -9 9 3 4 7 8 9 8 2 0 6 -4 9 -8z m-59 -12
c3 -5 1 -10 -4 -10 -6 0 -11 5 -11 10 0 6 2 10 4 10 3 0 8 -4 11 -10z m155 0
c0 -5 -2 -10 -4 -10 -3 0 -8 5 -11 10 -3 6 -1 10 4 10 6 0 11 -4 11 -10z m90
-5 c10 -12 10 -15 -4 -15 -9 0 -16 7 -16 15 0 8 2 15 4 15 2 0 9 -7 16 -15z
m-275 -23 c-9 -2 -13 -8 -9 -13 3 -5 10 -7 15 -4 5 4 9 1 9 -4 0 -6 -5 -11
-11 -11 -6 0 -3 -7 5 -16 19 -18 20 -25 4 -21 -21 4 -45 32 -34 39 7 5 7 8 -1
8 -19 0 -16 21 4 36 14 9 20 9 25 1 4 -7 1 -13 -7 -15z m-309 -4 c4 -6 3 -8
-4 -4 -6 3 -13 2 -17 -4 -3 -5 -11 -10 -16 -10 -11 0 12 29 23 30 4 0 10 -5
14 -12z m404 -15 c0 -5 -11 -8 -25 -8 -14 0 -25 3 -25 8 0 4 11 7 25 7 14 0
25 -3 25 -7z m167 1 c-3 -3 -12 -4 -19 -1 -8 3 -5 6 6 6 11 1 17 -2 13 -5z
m-547 -8 c0 -3 -4 -8 -10 -11 -5 -3 -10 -1 -10 4 0 6 5 11 10 11 6 0 10 -2 10
-4z m-38 -28 c-3 -12 -7 -17 -10 -10 -6 18 -22 14 -23 -5 0 -13 -2 -14 -6 -4
-3 8 2 20 13 28 26 19 33 16 26 -9z m155 -4 c8 -13 13 -30 10 -38 -4 -10 -1
-13 7 -10 8 3 16 -4 19 -16 4 -17 3 -19 -8 -10 -9 8 -15 8 -20 0 -3 -5 -20
-10 -36 -10 -17 0 -28 -4 -25 -8 3 -5 -1 -9 -9 -9 -8 0 -15 9 -15 19 0 11 5
16 10 13 6 -4 18 -1 27 7 12 9 15 9 9 1 -4 -7 -5 -13 -2 -13 14 0 34 57 25 71
-5 8 -9 9 -9 3 0 -23 -38 -22 -60 1 l-21 22 41 0 c32 0 45 -5 57 -23z m113 9
c0 -8 7 -16 15 -19 22 -9 18 -19 -7 -21 -16 -2 -19 0 -9 6 10 6 10 10 1 16 -6
4 -14 4 -17 1 -3 -3 -15 0 -26 5 -15 9 -17 13 -6 19 19 12 49 8 49 -7z m310 6
c0 -5 6 -7 13 -3 6 4 9 4 5 -1 -4 -4 0 -13 9 -20 13 -10 14 -13 2 -20 -8 -5
-11 -5 -7 0 8 9 -32 42 -45 37 -5 -1 -6 2 -2 8 8 13 25 13 25 -1z m95 -8 c-2
-25 -20 -29 -23 -5 -2 12 3 21 11 21 7 0 13 -7 12 -16z m-625 -8 c0 -5 -5 -15
-10 -23 -7 -12 -9 -10 -7 8 1 19 17 33 17 15z m699 -22 c-15 -5 -22 6 -14 19
6 9 10 9 16 -1 5 -8 4 -15 -2 -18z m-224 9 c3 -6 -1 -7 -9 -4 -18 7 -21 14 -7
14 6 0 13 -4 16 -10z m40 -4 c7 3 16 1 20 -5 3 -7 0 -8 -9 -5 -10 4 -16 1 -16
-7 0 -11 -3 -11 -10 1 -5 8 -9 20 -9 25 0 6 3 5 5 -2 3 -7 11 -10 19 -7z
m-1135 0 c0 -3 -4 -8 -10 -11 -5 -3 -10 -1 -10 4 0 6 5 11 10 11 6 0 10 -2 10
-4z m975 -17 c-6 -18 -4 -21 13 -17 23 6 50 -7 38 -19 -5 -4 -11 -3 -13 4 -2
7 -11 9 -19 6 -8 -3 -21 0 -29 7 -11 9 -12 15 -2 25 17 20 19 18 12 -6z m279
-14 c3 -8 1 -15 -4 -15 -6 0 -10 7 -10 15 0 8 2 15 4 15 2 0 6 -7 10 -15z m86
5 c0 -5 -9 -14 -20 -20 -24 -13 -26 -7 -4 14 18 18 24 20 24 6z m-665 -10 c4
-6 -4 -9 -17 -7 -17 1 -22 -3 -20 -15 2 -12 -3 -18 -15 -18 -15 0 -16 2 -3 10
11 7 7 10 -20 11 -34 2 -34 2 -5 6 17 3 34 9 40 14 12 12 32 12 40 -1z m120 0
c3 -6 -1 -7 -9 -4 -18 7 -21 14 -7 14 6 0 13 -4 16 -10z m47 -32 c-2 -11 -10
-17 -17 -14 -7 2 -17 0 -23 -6 -7 -7 -10 -4 -9 8 1 11 8 23 15 27 7 5 10 13 6
18 -3 6 3 5 14 -2 12 -8 17 -19 14 -31z m322 7 c-19 -29 -36 -33 -32 -7 2 9
12 20 23 24 11 3 21 6 23 7 1 1 -5 -10 -14 -24z m-263 -2 c13 -16 12 -17 -3
-4 -17 13 -22 21 -14 21 2 0 10 -8 17 -17z m84 -43 c-3 -6 -2 -10 4 -10 5 0
12 7 14 15 4 11 4 10 3 -2 -1 -20 -29 -28 -54 -17 -9 4 -20 7 -24 6 -4 -1 -5
5 -2 12 3 8 11 13 19 10 7 -3 16 3 19 13 7 17 8 17 17 0 6 -9 7 -22 4 -27z
m335 26 c-7 -7 -13 -7 -20 0 -6 6 -3 10 10 10 13 0 16 -4 10 -10z m-723 -2
c-3 -3 -12 -4 -19 -1 -8 3 -5 6 6 6 11 1 17 -2 13 -5z m166 -15 c4 -16 3 -18
-9 -8 -16 13 -19 29 -5 29 5 0 11 -9 14 -21z m307 3 c0 -5 -7 -17 -15 -28 -14
-18 -14 -17 -4 9 12 27 19 34 19 19z m-200 -28 c7 -16 14 -23 22 -18 9 5 8 2
-1 -9 -13 -16 -15 -16 -32 -1 -21 19 -26 3 -6 -18 18 -20 19 -38 2 -32 -8 4
-15 10 -15 16 0 5 -3 7 -8 4 -4 -2 -16 3 -27 11 -20 15 -20 15 3 10 15 -3 22
-1 22 9 0 13 21 54 28 54 1 0 7 -12 12 -26z m310 22 c0 -3 -4 -8 -10 -11 -5
-3 -10 -1 -10 4 0 6 5 11 10 11 6 0 10 -2 10 -4z m64 -11 c-4 -8 -8 -15 -10
-15 -2 0 -4 7 -4 15 0 8 4 15 10 15 5 0 7 -7 4 -15z m61 5 c3 -6 -1 -7 -9 -4
-18 7 -21 14 -7 14 6 0 13 -4 16 -10z m-575 -10 c3 -2 8 -2 12 -1 4 0 5 -6 2
-13 -4 -10 -18 -13 -44 -11 -33 3 -38 1 -33 -13 4 -13 2 -12 -10 3 -23 28 -21
36 8 25 19 -7 23 -6 18 6 -4 11 1 13 18 10 13 -3 26 -5 29 -6z m365 -11 c-5
-15 -4 -19 4 -15 6 4 11 2 11 -3 0 -18 -19 -12 -30 8 -9 18 -5 24 18 30 2 1 0
-9 -3 -20z m52 4 c0 -7 -4 -13 -9 -13 -4 0 -8 5 -8 11 0 5 -4 7 -10 4 -5 -3
-10 -2 -10 4 0 5 8 9 18 8 10 0 19 -7 19 -14z m33 -13 c0 -5 -2 -10 -4 -10 -3
0 -8 5 -11 10 -3 6 -1 10 4 10 6 0 11 -4 11 -10z m45 0 c3 -5 1 -10 -4 -10 -6
0 -11 5 -11 10 0 6 2 10 4 10 3 0 8 -4 11 -10z m-195 -10 c4 0 10 -6 13 -14 5
-12 -10 -15 -33 -6 -3 1 -8 2 -11 2 -3 -1 -6 6 -6 14 0 9 6 13 14 9 8 -3 18
-5 23 -5z m-70 -20 c-8 -5 -17 -7 -19 -4 -3 3 1 9 9 14 8 5 17 7 19 4 3 -3 -1
-9 -9 -14z m165 -8 c6 -4 11 -14 13 -22 3 -11 -3 -9 -20 5 -13 11 -25 21 -27
22 -2 2 2 3 10 3 8 0 19 -4 24 -8z m-45 -12 c0 -5 -8 -10 -17 -11 -16 0 -16
-1 1 -8 14 -5 16 -10 8 -15 -7 -4 -10 -12 -7 -17 4 -5 -1 -9 -11 -9 -13 0 -14
3 -4 15 17 20 -10 31 -39 16 -25 -14 -31 -14 -31 1 0 6 3 8 6 5 4 -3 16 -1 28
5 11 7 27 13 34 14 8 1 16 5 20 8 8 9 12 7 12 -4z m100 1 c0 -6 -5 -13 -12
-17 -6 -4 -8 -3 -4 4 3 5 0 13 -6 15 -8 3 -6 6 5 6 9 1 17 -3 17 -8z m-386
-17 c4 -9 2 -13 -5 -8 -7 4 -9 -1 -5 -17 3 -13 3 -18 0 -11 -3 6 -11 9 -16 6
-6 -4 -9 -3 -6 2 3 5 8 17 11 27 8 21 13 22 21 1z m-1854 -4 c0 -5 -2 -10 -4
-10 -3 0 -8 5 -11 10 -3 6 -1 10 4 10 6 0 11 -4 11 -10z m1790 -4 c0 -3 -4 -8
-10 -11 -5 -3 -10 -1 -10 4 0 6 5 11 10 11 6 0 10 -2 10 -4z m-1767 -21 c-3
-9 -8 -14 -10 -11 -3 3 -2 9 2 15 9 16 15 13 8 -4z m2052 -5 c-3 -5 -12 -10
-18 -10 -7 0 -6 4 3 10 19 12 23 12 15 0z m-2482 -25 c-3 -9 -8 -14 -10 -11
-3 3 -2 9 2 15 9 16 15 13 8 -4z m2282 -33 c-8 -2 -15 -8 -15 -13 0 -6 5 -7
10 -4 6 3 10 -3 10 -14 0 -14 -5 -19 -15 -15 -8 4 -15 9 -16 13 0 3 -3 18 -5
33 -4 25 -3 26 21 15 17 -8 20 -13 10 -15z m-141 2 c3 -8 2 -12 -4 -9 -6 3
-10 10 -10 16 0 14 7 11 14 -7z m-1709 -12 c-3 -3 -11 0 -18 7 -9 10 -8 11 6
5 10 -3 15 -9 12 -12z m-555 -62 c0 -5 -2 -10 -4 -10 -3 0 -8 5 -11 10 -3 6
-1 10 4 10 6 0 11 -4 11 -10z m-149 -23 c-10 -9 -11 -8 -5 6 3 10 9 15 12 12
3 -3 0 -11 -7 -18z m434 -17 c3 -6 -1 -7 -9 -4 -18 7 -21 14 -7 14 6 0 13 -4
16 -10z m2107 -57 c-6 -2 -9 -10 -6 -15 4 -7 2 -8 -4 -4 -18 11 -14 26 6 25
10 0 12 -3 4 -6z m24 -48 c-15 -11 -16 -15 -5 -15 8 0 21 -9 29 -19 7 -11 17
-18 22 -15 4 3 8 1 8 -5 0 -6 7 -7 17 -4 10 4 14 2 10 -5 -4 -6 1 -13 10 -15
14 -4 13 -5 -4 -6 -16 -1 -23 -7 -23 -22 0 -19 -2 -20 -16 -8 -9 8 -22 14 -28
14 -6 1 -19 5 -30 10 -12 5 -28 2 -49 -10 -16 -10 -27 -13 -23 -7 3 6 3 12 -1
15 -5 2 -2 2 5 0 20 -5 37 8 23 17 -15 9 -3 40 16 40 8 0 12 4 8 9 -6 11 22
41 38 41 7 0 3 -7 -7 -15z m-296 -14 c0 -6 -4 -12 -8 -15 -5 -3 -9 1 -9 9 0 8
4 15 9 15 4 0 8 -4 8 -9z m365 -10 c-3 -6 -14 -11 -23 -11 -15 1 -15 2 2 15
21 16 32 13 21 -4z m90 -11 c4 -6 -1 -7 -11 -3 -13 5 -16 2 -12 -9 4 -8 1 -15
-7 -15 -10 0 -11 5 -4 19 11 20 25 23 34 8z m-368 -32 c-3 -7 -5 -2 -5 12 0
14 2 19 5 13 2 -7 2 -19 0 -25z m-57 12 c0 -5 -2 -10 -4 -10 -3 0 -8 5 -11 10
-3 6 -1 10 4 10 6 0 11 -4 11 -10z m-524 -48 c1 -7 0 -8 -3 -2 -2 5 -9 8 -14
4 -5 -3 -9 0 -9 6 0 15 23 7 26 -8z m1011 -17 c0 -8 -4 -12 -9 -9 -5 3 -6 10
-3 15 9 13 12 11 12 -6z m-187 -4 c5 0 7 -8 4 -16 -4 -8 -1 -15 5 -15 16 0 26
4 24 10 -1 3 8 7 20 7 12 1 17 -1 11 -5 -13 -8 -38 -55 -49 -90 -6 -22 -5 -23
17 -12 20 10 21 10 6 -3 -10 -8 -16 -16 -13 -18 2 -3 -5 -5 -16 -5 -22 0 -22
33 0 59 15 19 5 41 -15 33 -8 -3 -14 -2 -14 3 0 4 -7 8 -16 8 -11 0 -14 -7
-11 -22 3 -18 0 -21 -16 -17 -13 3 -18 11 -14 28 2 13 0 22 -6 21 -5 -1 -12 4
-15 12 -3 10 0 12 12 8 9 -4 16 -1 16 6 0 10 28 14 70 8z m-130 -36 c-7 -9
-15 -13 -17 -11 -7 7 7 26 19 26 6 0 6 -6 -2 -15z m240 -26 c0 -6 10 -8 23 -4
19 5 20 4 4 -5 -9 -6 -21 -9 -26 -5 -5 3 -13 0 -16 -6 -4 -5 -14 -8 -23 -4 -8
3 -19 0 -24 -7 -5 -9 -8 -8 -8 6 0 31 29 57 51 45 11 -5 19 -14 19 -20z m99
-67 c1 -13 -3 -20 -9 -17 -5 3 -10 1 -10 -4 0 -6 -5 -11 -12 -11 -6 0 -3 9 7
20 18 20 17 20 -11 21 -24 1 -25 3 -6 6 16 3 22 12 23 31 l1 27 8 -25 c4 -14
8 -35 9 -48z m-325 23 c-4 -8 -11 -12 -17 -8 -8 5 -7 8 1 11 7 2 9 9 6 14 -4
7 -2 8 4 4 6 -4 9 -13 6 -21z m-64 -10 c0 -8 -8 -15 -17 -14 -11 0 -13 3 -5 6
6 2 10 9 6 14 -3 5 0 9 5 9 6 0 11 -7 11 -15z m114 -4 c-8 -8 -43 -8 -38 0 2
4 13 7 24 6 10 -1 17 -3 14 -6z m155 -35 c10 -12 8 -13 -8 -9 -16 4 -21 1 -21
-13 0 -16 2 -17 10 -4 6 9 10 10 10 3 0 -19 -19 -25 -34 -10 -15 15 -10 31 14
40 8 3 16 6 16 6 1 1 7 -5 13 -13z m-264 -16 c8 -13 -5 -13 -25 0 -13 8 -13
10 2 10 9 0 20 -4 23 -10z m363 -38 c3 -27 0 -32 -18 -32 -13 0 -19 4 -14 11
3 6 0 15 -7 20 -10 6 -7 9 11 10 14 0 19 3 13 6 -7 2 -13 9 -13 15 0 25 25 -2
28 -30z m-811 13 c0 -8 -4 -12 -9 -9 -5 3 -6 10 -3 15 9 13 12 11 12 -6z m383
11 c0 -3 -4 -8 -10 -11 -5 -3 -10 -1 -10 4 0 6 5 11 10 11 6 0 10 -2 10 -4z
m0 -36 c0 -5 -2 -10 -4 -10 -3 0 -8 5 -11 10 -3 6 -1 10 4 10 6 0 11 -4 11
-10z m328 -13 c-2 -22 -12 -25 -48 -18 -4 1 41 40 47 41 2 0 2 -10 1 -23z
m-228 -10 c0 -7 -4 -6 -10 3 -6 10 -10 11 -10 3 0 -7 -9 -13 -20 -13 -27 0
-25 18 3 22 27 5 37 1 37 -15z m84 8 c3 -8 0 -15 -6 -15 -7 0 -6 -5 2 -15 7
-8 19 -15 26 -15 8 0 14 -6 14 -12 0 -9 4 -8 10 2 8 12 10 12 10 1 0 -8 -8
-20 -17 -27 -11 -8 -13 -13 -5 -14 17 0 15 -17 -3 -17 -8 0 -16 9 -16 19 -1
17 -3 28 -9 46 -1 4 -6 -4 -10 -18 -7 -23 -8 -22 -9 9 -1 33 -2 34 -15 15 -8
-10 -18 -16 -22 -11 -4 4 -2 7 4 7 7 0 12 5 12 11 0 5 -4 7 -10 4 -6 -4 -7 1
-3 11 4 11 8 13 11 6 2 -7 8 -10 12 -7 5 3 7 12 3 20 -3 8 -1 15 5 15 5 0 12
-7 16 -15z m46 5 c0 -5 -2 -10 -4 -10 -3 0 -8 5 -11 10 -3 6 -1 10 4 10 6 0
11 -4 11 -10z m-329 -27 c13 -14 17 -22 9 -17 -8 5 -19 9 -25 9 -5 0 -11 8
-13 18 -5 23 0 22 29 -10z m129 12 c0 -8 -4 -15 -10 -15 -5 0 -10 7 -10 15 0
8 5 15 10 15 6 0 10 -7 10 -15z m-175 -4 c3 -5 1 -12 -5 -16 -5 -3 -10 1 -10
9 0 18 6 21 15 7z m235 -28 c0 -8 -5 -13 -12 -11 -18 6 -21 25 -3 25 8 0 15
-7 15 -14z m26 -9 c-3 -8 0 -14 7 -15 8 0 7 -2 -2 -6 -11 -5 -11 -7 0 -15 11
-8 10 -9 -3 -5 -9 3 -19 1 -22 -6 -2 -7 -5 -4 -5 6 -1 9 3 17 8 17 4 0 6 12 3
26 -3 20 -2 25 7 19 7 -4 10 -13 7 -21z m-416 -4 c0 -4 -7 -13 -15 -20 -13
-11 -15 -9 -13 13 1 16 7 23 15 20 7 -3 13 -9 13 -13z m284 4 c3 -8 2 -12 -4
-9 -6 3 -10 10 -10 16 0 14 7 11 14 -7z m93 -47 c2 -10 -1 -15 -7 -12 -5 3
-10 1 -10 -5 0 -6 -4 -9 -9 -5 -6 3 -14 -3 -20 -12 -12 -23 -25 -10 -27 27 -1
23 4 30 25 35 14 4 20 10 13 12 -6 3 -9 9 -6 15 7 11 37 -29 41 -55z m233 32
c0 -6 -7 -3 -16 5 -17 18 -38 11 -30 -9 2 -7 -1 -16 -9 -19 -15 -5 -11 18 8
41 10 14 47 0 47 -18z m-426 5 c3 -8 2 -12 -4 -9 -6 3 -10 10 -10 16 0 14 7
11 14 -7z m41 -4 c3 -5 1 -10 -4 -10 -6 0 -11 5 -11 10 0 6 2 10 4 10 3 0 8
-4 11 -10z m-175 -10 c0 -5 -2 -10 -4 -10 -3 0 -8 5 -11 10 -3 6 -1 10 4 10 6
0 11 -4 11 -10z m405 0 c3 -5 1 -10 -4 -10 -6 0 -11 5 -11 10 0 6 2 10 4 10 3
0 8 -4 11 -10z m-573 -22 c-7 -7 -12 -8 -12 -2 0 6 3 14 7 17 3 4 9 5 12 2 2
-3 -1 -11 -7 -17z m412 6 c8 -22 8 -24 -6 -24 -6 0 -8 3 -5 7 4 3 2 12 -4 20
-7 8 -8 13 -1 13 5 0 13 -7 16 -16z m-34 2 c0 -2 -7 -6 -15 -10 -8 -3 -15 -1
-15 4 0 6 7 10 15 10 8 0 15 -2 15 -4z m357 -22 c-1 -15 4 -29 11 -31 6 -3 12
3 12 12 0 10 -5 13 -12 9 -9 -5 -9 -2 1 9 14 18 26 23 17 8 -4 -5 -1 -11 5
-13 8 -3 6 -13 -7 -32 -10 -16 -20 -24 -22 -17 -5 16 -48 14 -66 -4 -8 -8 -21
-15 -28 -15 -9 0 -9 -3 -2 -8 15 -10 14 -39 -2 -39 -7 0 -11 4 -8 9 3 4 -1 8
-8 8 -10 0 -10 2 0 9 8 4 14 12 14 17 0 12 30 38 48 42 26 6 36 22 15 23 -17
0 -16 2 5 10 20 8 22 12 10 19 -13 8 -12 10 2 10 12 0 16 -7 15 -26z m-527 1
l25 -14 -26 -1 c-14 0 -33 -6 -42 -12 -16 -12 -16 -14 3 -26 17 -10 20 -10 21
5 0 11 3 13 6 6 3 -10 8 -9 20 3 8 8 18 12 21 9 3 -3 -9 -19 -26 -35 -20 -18
-32 -24 -32 -15 0 16 -34 38 -43 29 -3 -4 -5 3 -4 14 0 12 6 18 14 15 7 -3 13
0 13 7 0 6 4 9 9 5 5 -3 12 -1 15 4 4 5 -2 12 -11 14 -13 3 -13 5 -3 5 8 1 26
-5 40 -13z m384 -6 c6 9 13 8 26 -4 10 -9 24 -14 29 -10 6 3 11 -1 11 -9 0
-10 -6 -13 -15 -10 -9 4 -15 0 -15 -9 0 -8 -7 -17 -15 -21 -11 -4 -15 1 -15
19 0 15 -7 26 -20 30 -11 3 -20 14 -20 23 0 13 2 13 13 -3 10 -13 16 -15 21
-6z m-289 -7 c-31 -21 -36 -96 -6 -78 15 9 2 -24 -17 -43 -12 -12 -15 -12 -22
-1 -10 16 -3 33 11 25 11 -7 11 -3 3 19 -3 9 -10 14 -14 11 -4 -3 -13 2 -19 9
-9 11 -9 16 0 21 6 4 15 2 19 -5 5 -8 9 -7 13 4 4 9 1 16 -5 16 -7 0 -6 5 2
15 7 8 20 15 29 15 9 0 12 -3 6 -8z m55 -4 c0 -4 -4 -8 -9 -8 -6 0 -12 4 -15
8 -3 5 1 9 9 9 8 0 15 -4 15 -9z m-1945 -7 c3 -5 1 -12 -5 -16 -5 -3 -10 -1
-10 5 0 7 -7 9 -16 6 -8 -3 -12 -2 -9 4 8 13 32 13 40 1z m1570 0 c3 -5 1 -12
-5 -16 -5 -3 -10 1 -10 9 0 18 6 21 15 7z m539 -6 c3 -8 1 -15 -4 -15 -6 0
-10 7 -10 15 0 8 2 15 4 15 2 0 6 -7 10 -15z m-138 -20 c1 -8 -2 -15 -6 -15
-5 0 -8 9 -7 20 1 21 10 18 13 -5z m202 6 c3 -8 -1 -12 -9 -9 -7 2 -15 10 -17
17 -3 8 1 12 9 9 7 -2 15 -10 17 -17z m-94 -16 c11 -8 15 -15 8 -15 -6 0 -9
-6 -6 -14 3 -8 1 -17 -4 -20 -5 -3 -9 2 -8 12 0 10 -5 16 -14 14 -8 -2 -12 0
-8 4 4 4 3 13 -3 21 -16 18 10 17 35 -2z m-134 -31 c0 -9 5 -12 12 -8 7 4 8 3
4 -4 -10 -17 -36 -3 -28 16 5 14 3 15 -9 5 -12 -10 -15 -8 -15 7 0 15 4 16 18
9 10 -5 18 -17 18 -25z m80 25 c12 -8 10 -9 -7 -4 -28 8 -31 -3 -4 -13 16 -6
17 -9 5 -20 -12 -11 -14 -10 -14 3 0 8 -4 15 -10 15 -5 0 -10 7 -10 15 0 17
18 19 40 4z m-339 -36 c-12 -20 -14 -14 -5 12 4 9 9 14 11 11 3 -2 0 -13 -6
-23z m456 7 c-1 -11 -2 -20 -3 -20 -1 0 -10 3 -18 6 -13 5 -14 9 -5 20 16 20
28 17 26 -6z m-523 2 c3 -5 -1 -9 -9 -9 -8 0 -15 4 -15 9 0 4 4 8 9 8 6 0 12
-4 15 -8z m-404 -12 c0 -5 -5 -10 -11 -10 -5 0 -7 5 -4 10 3 6 8 10 11 10 2 0
4 -4 4 -10z m307 -10 c-2 -24 -21 -21 -25 3 -2 10 3 17 12 17 9 0 14 -8 13
-20z m261 -3 c8 -10 6 -13 -7 -13 -11 0 -17 6 -14 13 3 7 6 13 8 13 1 0 7 -6
13 -13z m-190 -9 c8 -10 4 -13 -18 -13 -18 0 -26 4 -23 13 3 6 11 12 18 12 7
0 17 -6 23 -12z m72 8 c0 -2 -6 -9 -14 -15 -11 -9 -16 -9 -22 0 -4 7 -3 9 4 5
6 -3 13 -2 17 4 6 10 15 14 15 6z m80 -6 c0 -5 -4 -10 -10 -10 -5 0 -10 5 -10
10 0 6 5 10 10 10 6 0 10 -4 10 -10z m240 1 c0 -16 -28 -33 -35 -21 -4 6 -4
14 -1 17 3 4 6 1 6 -6 0 -7 5 -9 10 -6 6 4 8 11 5 16 -4 5 -1 9 4 9 6 0 11 -4
11 -9z m220 -7 c0 -2 -7 -4 -15 -4 -8 0 -15 4 -15 10 0 5 7 7 15 4 8 -4 15 -8
15 -10z m-190 -9 c-10 -12 -10 -21 -1 -42 6 -14 10 -28 7 -30 -2 -2 -7 5 -11
17 -5 15 -12 19 -25 15 -10 -3 -21 -2 -24 3 -3 6 2 9 11 8 10 0 18 5 19 12 1
6 2 17 3 22 0 6 8 10 17 10 14 0 14 -3 4 -15z m40 -3 c0 -5 -7 -9 -15 -9 -8 0
-12 4 -9 9 3 4 9 8 15 8 5 0 9 -4 9 -8z m90 4 c0 -2 -3 -11 -6 -20 -9 -23 -24
-20 -24 4 0 11 7 20 15 20 8 0 15 -2 15 -4z m-569 -43 c-11 -16 -11 -15 -5 6
4 17 3 21 -6 16 -9 -6 -11 -4 -5 4 5 9 11 9 17 3 7 -7 6 -16 -1 -29z m527 -4
c-3 -8 -7 -3 -11 10 -4 17 -3 21 5 13 5 -5 8 -16 6 -23z m89 16 c0 -8 -4 -12
-9 -9 -5 3 -6 10 -3 15 9 13 12 11 12 -6z m-697 -5 c0 -5 -2 -10 -4 -10 -3 0
-8 5 -11 10 -3 6 -1 10 4 10 6 0 11 -4 11 -10z m394 -15 c4 -12 -3 -15 -29
-15 -26 0 -33 3 -29 15 4 8 16 15 29 15 13 0 25 -7 29 -15z m180 7 c2 -4 -4
-8 -14 -8 -10 0 -16 4 -14 8 3 4 9 8 14 8 5 0 11 -4 14 -8z m81 -2 c3 -6 -4
-10 -17 -10 -18 0 -20 2 -8 10 19 12 18 12 25 0z m-955 -36 c0 -8 -5 -12 -10
-9 -6 4 -8 11 -5 16 9 14 15 11 15 -7z m328 -23 c2 -6 -1 -11 -7 -11 -6 0 -11
5 -11 11 0 6 -7 9 -15 5 -21 -8 -45 3 -39 19 5 11 11 11 37 0 17 -7 33 -18 35
-24z m89 17 c2 -17 0 -19 -7 -8 -5 8 -6 18 -4 22 8 12 10 10 11 -14z m-697 2
c0 -5 -2 -10 -4 -10 -3 0 -8 5 -11 10 -3 6 -1 10 4 10 6 0 11 -4 11 -10z m478
-7 c-6 -8 -6 -13 -1 -13 5 0 10 -7 10 -15 0 -8 -7 -15 -15 -15 -9 0 -12 6 -8
15 3 9 -1 18 -9 21 -24 10 -17 24 9 22 19 -2 22 -5 14 -15z m-288 -13 c0 -5
-5 -10 -11 -10 -5 0 -7 5 -4 10 3 6 8 10 11 10 2 0 4 -4 4 -10z m650 -9 c0
-10 -9 -21 -20 -24 -15 -4 -20 0 -20 13 0 10 8 21 18 23 9 3 18 5 20 6 1 0 2
-7 2 -18z m-290 -6 c7 -9 8 -15 2 -15 -5 0 -12 7 -16 15 -3 8 -4 15 -2 15 2 0
9 -7 16 -15z m-100 -45 c0 -5 1 -13 3 -17 5 -13 -33 -11 -44 3 -10 12 -9 13 5
8 9 -3 16 -1 16 5 0 6 5 11 10 11 6 0 10 -4 10 -10z m235 0 c3 -6 -1 -7 -9 -4
-18 7 -21 14 -7 14 6 0 13 -4 16 -10z m-1731 -18 c8 -13 -5 -52 -15 -46 -5 3
-7 10 -3 15 3 5 0 16 -6 24 -10 12 -9 15 3 15 9 0 18 -4 21 -8z m1442 -50
c-15 -15 -15 -15 -4 10 7 15 15 23 17 17 2 -6 -4 -18 -13 -27z m169 28 c3 -6
-1 -7 -9 -4 -18 7 -21 14 -7 14 6 0 13 -4 16 -10z m320 -12 c1 -2 6 -13 10
-26 6 -22 5 -22 -17 -10 -41 23 -51 49 -17 43 12 -3 23 -6 24 -7z m-1318 -30
c-3 -7 -5 -2 -5 12 0 14 2 19 5 13 2 -7 2 -19 0 -25z m-23 -2 c-3 -9 -10 -16
-15 -16 -5 0 -4 9 3 20 14 22 21 20 12 -4z m596 10 c0 -8 -6 -16 -14 -19 -17
-7 -30 20 -13 27 21 8 27 6 27 -8z m161 -9 c-10 -9 -11 -8 -5 6 3 10 9 15 12
12 3 -3 0 -11 -7 -18z m509 8 c0 -8 -4 -15 -8 -15 -5 0 -9 7 -9 15 0 8 4 15 9
15 4 0 8 -7 8 -15z m-1145 -5 c3 -5 -1 -10 -9 -10 -9 0 -16 5 -16 10 0 6 4 10
9 10 6 0 13 -4 16 -10z m532 -10 c11 -17 10 -21 -9 -31 -18 -10 -20 -9 -15 5
4 9 2 16 -3 16 -6 0 -10 7 -10 15 0 21 23 19 37 -5z m-1927 -9 c0 -5 -7 -14
-15 -21 -13 -10 -15 -9 -15 9 0 12 6 21 15 21 8 0 15 -4 15 -9z m624 -6 c-4
-8 -11 -12 -16 -9 -6 4 -5 10 3 15 19 12 19 11 13 -6z m1586 5 c0 -5 -9 -14
-19 -19 -16 -9 -18 -8 -14 9 5 20 33 29 33 10z m387 -12 c-3 -8 -6 -5 -6 6 -1
11 2 17 5 13 3 -3 4 -12 1 -19z m-1482 1 c11 -16 1 -19 -13 -3 -7 8 -8 14 -3
14 5 0 13 -5 16 -11z m1205 -10 c0 -14 -17 -10 -23 5 -4 10 -1 13 9 9 7 -3 14
-9 14 -14z m130 11 c0 -5 -4 -10 -10 -10 -5 0 -10 5 -10 10 0 6 5 10 10 10 6
0 10 -4 10 -10z m-340 -4 c0 -3 -4 -8 -10 -11 -5 -3 -10 -1 -10 4 0 6 5 11 10
11 6 0 10 -2 10 -4z m253 -21 c0 -6 -7 -11 -16 -11 -16 -2 -16 -1 -1 3 14 4
15 7 3 15 -11 7 -11 9 -1 6 8 -2 14 -8 15 -13z m-1733 -1 c0 -10 -28 -34 -39
-34 -6 0 -11 -4 -11 -9 0 -5 -7 -11 -15 -15 -12 -4 -13 -2 -2 14 6 11 18 20
25 20 7 0 11 4 8 9 -4 5 0 12 6 14 18 8 28 8 28 1z m1167 -16 c-3 -8 -6 -5 -6
6 -1 11 2 17 5 13 3 -3 4 -12 1 -19z m416 -17 c-9 -12 -23 -21 -31 -21 -7 0
-10 -4 -7 -10 3 -5 -1 -10 -9 -10 -9 0 -16 3 -16 8 0 16 68 65 78 57 2 -2 -5
-13 -15 -24z m-443 5 c0 -3 -4 -8 -10 -11 -5 -3 -10 -1 -10 4 0 6 5 11 10 11
6 0 10 -2 10 -4z m475 -13 c-4 -34 -17 -56 -26 -42 -4 7 0 23 8 36 18 28 20
28 18 6z m140 -3 c-2 -4 -16 -5 -30 -3 -13 3 -23 9 -20 13 2 4 16 5 30 3 13
-3 23 -9 20 -13z m-1252 -21 c6 -4 6 -9 0 -12 -6 -4 -19 0 -29 8 -16 13 -17
16 -4 24 10 7 16 7 19 -2 2 -7 8 -15 14 -18z m1161 16 c-4 -8 -8 -15 -10 -15
-2 0 -4 7 -4 15 0 8 4 15 10 15 5 0 7 -7 4 -15z m-1674 -5 c0 -5 -4 -10 -10
-10 -5 0 -10 5 -10 10 0 6 5 10 10 10 6 0 10 -4 10 -10z m916 -2 c5 -8 2 -9
-9 -5 -10 4 -20 0 -26 -11 -6 -9 -11 -12 -11 -6 0 11 20 34 31 34 4 0 11 -5
15 -12z m231 -24 c14 6 14 4 2 -10 -8 -10 -15 -12 -17 -5 -2 6 -8 11 -14 11
-13 0 -38 26 -32 33 3 3 15 -4 26 -15 11 -11 26 -17 35 -14z m203 15 c0 -5 -4
-9 -8 -9 -5 0 -9 7 -9 15 0 8 4 12 9 9 4 -3 8 -9 8 -15z m570 8 c0 -19 -20
-36 -36 -30 -8 3 -11 9 -8 14 3 5 10 7 15 4 5 -4 9 1 9 9 0 9 5 16 10 16 6 0
10 -6 10 -13z m-1873 -11 c-3 -8 -1 -17 6 -20 8 -3 5 -9 -8 -18 -37 -23 -45
-18 -28 18 16 33 41 49 30 20z m298 -7 c17 -1 17 -2 2 -6 -9 -2 -15 -9 -12
-14 4 -5 0 -9 -8 -9 -8 0 -17 12 -20 26 -3 18 -1 22 6 15 6 -6 20 -12 32 -12z
m-461 -5 c3 -8 2 -12 -4 -9 -6 3 -10 10 -10 16 0 14 7 11 14 -7z m712 -1 c17
-23 17 -30 0 -30 -8 0 -12 6 -9 14 3 7 0 13 -6 13 -6 0 -11 5 -11 10 0 15 11
12 26 -7z m262 -14 c-3 -8 -7 -3 -11 10 -4 17 -3 21 5 13 5 -5 8 -16 6 -23z
m-1808 11 c0 -5 -4 -10 -10 -10 -5 0 -10 5 -10 10 0 6 5 10 10 10 6 0 10 -4
10 -10z m198 1 c11 -7 10 -10 -3 -15 -20 -7 -38 1 -30 15 7 11 16 11 33 0z
m746 -25 c-3 -14 -13 -26 -21 -26 -13 0 -13 3 -3 15 17 21 9 26 -14 9 -17 -12
-17 -16 -5 -30 12 -15 12 -17 -1 -12 -8 3 -15 13 -15 24 -1 10 -4 24 -8 31 -4
7 -1 10 10 9 10 -2 27 0 38 4 26 10 27 8 19 -24z m976 6 c0 -21 -2 -22 -15
-12 -11 9 -15 10 -15 1 0 -8 -6 -6 -17 4 -18 19 -8 31 27 31 14 0 20 -7 20
-24z m284 -2 c-6 -6 -10 -3 -10 10 0 13 4 16 10 10 7 -7 7 -13 0 -20z m87 12
c-7 -2 -18 1 -23 6 -8 8 -4 9 13 5 13 -4 18 -8 10 -11z m-2001 -2 c0 -5 -4
-10 -10 -10 -5 0 -10 5 -10 10 0 6 5 10 10 10 6 0 10 -4 10 -10z m445 0 c-3
-5 -12 -7 -20 -3 -21 7 -19 13 6 13 11 0 18 -4 14 -10z m75 -5 c11 7 20 -19
11 -33 -4 -8 -17 -3 -36 15 -17 14 -22 23 -12 20 10 -4 17 -1 18 6 0 9 2 9 6
-1 2 -6 8 -10 13 -7z m433 -7 c-3 -13 -2 -20 2 -16 4 4 14 0 21 -10 10 -13 13
-14 14 -3 0 11 5 10 19 -5 18 -19 18 -19 -3 -32 -16 -10 -17 -12 -3 -8 10 3
25 -1 33 -9 14 -13 14 -15 1 -15 -9 0 -17 -5 -19 -12 -3 -8 -12 -4 -26 10 -12
12 -19 27 -17 34 6 17 -6 35 -26 39 -13 3 -15 9 -8 27 5 12 10 22 13 22 2 0 2
-10 -1 -22z m-99 -20 c-3 -4 -11 -5 -19 -2 -11 5 -12 9 -2 19 12 13 31 -1 21
-17z m1616 17 c11 -13 10 -14 -4 -9 -9 3 -16 10 -16 15 0 13 6 11 20 -6z
m-1437 -15 c3 -11 1 -18 -4 -14 -5 3 -9 12 -9 20 0 20 7 17 13 -6z m1357 10
c0 -5 -4 -10 -10 -10 -5 0 -10 -4 -10 -10 0 -5 12 -8 26 -7 31 2 47 -26 32
-58 -8 -18 -8 -18 -4 3 3 14 -1 22 -10 22 -8 0 -14 6 -14 13 0 8 -10 13 -22
13 -17 -1 -24 5 -26 22 -3 17 2 22 17 22 12 0 21 -4 21 -10z m-2480 -10 c0 -5
-5 -10 -11 -10 -5 0 -7 5 -4 10 3 6 8 10 11 10 2 0 4 -4 4 -10z m810 -5 c-7
-8 -17 -15 -23 -15 -6 0 -2 7 9 15 25 19 30 19 14 0z m1277 9 c-3 -3 -12 -4
-19 -1 -8 3 -5 6 6 6 11 1 17 -2 13 -5z m73 -3 c0 -5 -6 -14 -14 -20 -12 -10
-14 -9 -11 6 2 10 4 19 4 21 2 6 21 1 21 -7z m-1490 -17 c0 -8 -5 -12 -10 -9
-6 3 -13 0 -16 -9 -4 -11 -11 -12 -35 -4 -28 9 -40 28 -19 28 6 0 10 -4 10
-10 0 -5 9 -10 21 -10 13 0 18 4 13 12 -4 6 -3 8 4 4 6 -3 13 -2 17 4 9 15 15
12 15 -6z m1877 1 c0 -8 -4 -15 -9 -15 -4 0 -8 7 -8 15 0 8 4 15 8 15 5 0 9
-7 9 -15z m53 11 c0 -3 -4 -8 -10 -11 -5 -3 -10 -1 -10 4 0 6 5 11 10 11 6 0
10 -2 10 -4z m-2076 -21 c-4 -8 -10 -15 -15 -15 -4 0 -6 7 -3 15 4 8 10 15 15
15 4 0 6 -7 3 -15z m33 -4 c0 -11 -7 -17 -14 -14 -9 4 -9 8 0 19 16 17 16 17
14 -5z m1403 9 c0 -5 -5 -10 -11 -10 -5 0 -7 5 -4 10 3 6 8 10 11 10 2 0 4 -4
4 -10z m411 -13 c-10 -9 -11 -8 -5 6 3 10 9 15 12 12 3 -3 0 -11 -7 -18z
m-526 3 c3 -5 2 -10 -4 -10 -5 0 -13 5 -16 10 -3 6 -2 10 4 10 5 0 13 -4 16
-10z m590 0 c3 -5 1 -10 -4 -10 -6 0 -11 5 -11 10 0 6 2 10 4 10 3 0 8 -4 11
-10z m-1431 -8 c3 -5 -1 -9 -9 -9 -8 0 -12 4 -9 9 3 4 7 8 9 8 2 0 6 -4 9 -8z
m558 -14 c-5 -22 -3 -21 -38 -3 -16 8 -22 15 -13 15 8 0 21 -6 28 -12 11 -11
13 -10 8 3 -3 9 0 16 8 16 7 0 10 -8 7 -19z m493 5 c-2 -10 -4 -20 -4 -22 -1
-3 -6 0 -13 7 -15 15 -31 16 -22 0 4 -7 3 -8 -5 -4 -15 10 -3 29 15 22 7 -3
16 -1 19 4 9 15 14 12 10 -7z m295 -4 c0 -6 -4 -7 -10 -4 -5 3 -10 11 -10 16
0 6 5 7 10 4 6 -3 10 -11 10 -16z m60 13 c0 -5 -12 -14 -26 -20 -15 -7 -22
-17 -18 -24 5 -7 3 -8 -6 -3 -10 6 -7 14 14 32 29 25 36 28 36 15z m-1927 -26
c4 -10 0 -14 -13 -13 -14 1 -16 4 -8 14 13 16 15 16 21 -1z m1397 4 c0 -5 -4
-10 -10 -10 -5 0 -10 5 -10 10 0 6 5 10 10 10 6 0 10 -4 10 -10z m34 -17 c-10
-40 -14 -41 -14 -5 0 18 5 32 10 32 6 0 8 -11 4 -27z m-1344 13 c0 -3 -4 -8
-10 -11 -5 -3 -10 -1 -10 4 0 6 5 11 10 11 6 0 10 -2 10 -4z m72 -21 c3 -13 1
-22 -3 -19 -9 5 -13 44 -5 44 2 0 6 -11 8 -25z m186 -34 c15 -15 15 -15 9 1
-3 10 -2 20 3 23 20 13 9 -30 -13 -50 -12 -11 -18 -17 -13 -12 6 4 15 7 21 7
11 -1 -24 -30 -37 -30 -9 0 -6 29 4 46 10 15 -2 54 -16 54 -6 0 -4 5 4 10 11
7 16 4 18 -12 2 -12 11 -28 20 -37z m1206 5 c17 2 48 7 69 10 30 5 37 3 37
-10 0 -11 -4 -14 -12 -9 -21 12 -42 9 -62 -9 -25 -22 -40 -23 -32 -2 4 12 2
15 -9 10 -19 -7 -47 3 -39 15 3 5 0 9 -6 9 -6 0 -8 5 -5 10 3 6 1 10 -5 10 -6
0 -8 5 -4 12 5 8 13 1 22 -19 13 -27 19 -31 46 -27z m-504 40 c0 -2 -7 -7 -16
-10 -8 -3 -12 -2 -9 4 6 10 25 14 25 6z m-210 -18 c0 -4 -7 -8 -15 -8 -8 0
-15 4 -15 8 0 5 7 9 15 9 8 0 15 -4 15 -9z m-860 -8 c0 -5 -2 -10 -4 -10 -3 0
-8 5 -11 10 -3 6 -1 10 4 10 6 0 11 -4 11 -10z m61 -5 c8 5 11 5 7 0 -4 -4 -2
-15 5 -23 9 -11 4 -11 -15 2 -16 10 -28 23 -28 30 0 6 4 5 9 -3 5 -8 14 -10
22 -6z m40 -2 c13 -16 12 -17 -3 -4 -10 7 -18 15 -18 17 0 8 8 3 21 -13z m383
2 c-7 -16 -24 -21 -24 -6 0 8 7 13 27 20 1 1 0 -6 -3 -14z m516 -6 c12 -8 12
-9 -4 -7 -16 2 -20 -3 -20 -27 -1 -26 -4 -29 -35 -31 -27 -1 -31 0 -18 8 10 5
22 6 28 3 6 -4 9 -1 8 6 -4 18 10 59 19 59 4 0 14 -5 22 -11z m-141 -34 c-13
-12 -26 -20 -29 -18 -3 3 4 11 15 20 11 8 19 19 17 24 -1 6 3 7 9 4 7 -5 3
-15 -12 -30z m842 8 c-12 -20 -14 -14 -5 12 4 9 9 14 11 11 3 -2 0 -13 -6 -23z
m83 19 c3 -5 -1 -9 -9 -9 -8 0 -12 4 -9 9 3 4 7 8 9 8 2 0 6 -4 9 -8z m-1500
-27 c3 -8 2 -14 -2 -14 -18 3 -32 -2 -46 -17 -14 -14 -16 -14 -16 0 0 9 11 18
25 22 14 3 25 10 25 15 0 14 7 11 14 -6z m1461 5 c3 -5 2 -10 -4 -10 -5 0 -13
5 -16 10 -3 6 -2 10 4 10 5 0 13 -4 16 -10z m-1743 -7 c-6 -2 -10 -9 -6 -14 3
-5 1 -9 -5 -9 -5 0 -12 4 -15 9 -6 9 10 19 29 19 6 0 4 -2 -3 -5z m107 -46
c-1 -20 -2 -20 -9 3 -6 19 -8 20 -9 6 -1 -15 -4 -16 -16 -6 -9 7 -13 15 -10
18 3 3 0 11 -6 18 -8 10 -2 9 20 -2 21 -11 31 -22 30 -37z m98 17 c0 -17 -9
-18 -24 -3 -9 9 -11 7 -6 -9 3 -13 11 -19 24 -17 22 4 35 -10 18 -21 -6 -3
-15 0 -20 7 -6 10 -9 11 -9 2 0 -7 -5 -13 -11 -13 -5 0 -8 4 -5 9 4 5 1 11 -5
13 -6 2 -13 15 -14 29 -2 22 0 25 24 21 15 -2 28 -10 28 -18z m259 -3 c-4 -5
-13 -8 -21 -5 -11 5 -12 9 -2 19 13 15 33 3 23 -14z m294 21 c0 -5 -7 -9 -15
-9 -8 0 -12 4 -9 9 3 4 9 8 15 8 5 0 9 -4 9 -8z m890 -12 c0 -5 -5 -10 -11
-10 -5 0 -7 5 -4 10 3 6 8 10 11 10 2 0 4 -4 4 -10z m-650 -10 c0 -5 -5 -10
-11 -10 -5 0 -7 5 -4 10 3 6 8 10 11 10 2 0 4 -4 4 -10z m471 -7 c13 -16 12
-17 -3 -4 -17 13 -22 21 -14 21 2 0 10 -8 17 -17z m-1540 -10 c13 -17 13 -17
-5 -3 -18 14 -19 13 -14 -7 6 -22 -1 -27 -28 -24 -7 1 -14 -9 -17 -21 -4 -12
-9 -19 -13 -15 -4 4 -13 2 -21 -4 -10 -9 -13 -8 -13 1 0 6 9 14 20 17 11 3 18
9 15 13 -3 5 4 11 15 15 11 3 25 15 30 26 13 23 14 23 31 2z m1594 8 c3 -5 2
-12 -3 -15 -5 -3 -9 1 -9 9 0 17 3 19 12 6z m-1645 -5 c0 -2 -7 -7 -16 -10 -8
-3 -12 -2 -9 4 6 10 25 14 25 6z m107 -2 c-3 -3 -12 -4 -19 -1 -8 3 -5 6 6 6
11 1 17 -2 13 -5z m73 -9 c0 -2 -9 -3 -19 -2 -11 0 -18 5 -15 9 4 6 34 0 34
-7z m313 7 c-16 -10 -10 -42 10 -54 9 -5 17 -14 17 -19 0 -6 -7 -3 -16 6 -13
12 -19 13 -30 4 -18 -14 -20 -12 -27 28 -6 32 1 39 43 42 11 0 11 -2 3 -7z
m-228 -11 c-3 -5 -1 -12 4 -16 14 -8 1 -37 -14 -31 -8 3 -16 -2 -19 -10 -3 -8
-11 -14 -18 -14 -9 0 -9 3 2 10 13 8 13 11 1 19 -17 11 -6 32 13 25 7 -3 16 2
19 10 4 9 9 16 12 16 4 0 4 -4 0 -9z m145 -3 c0 -4 -7 -8 -15 -8 -7 0 -18 -7
-23 -17 -8 -13 -9 -11 -9 10 0 22 4 26 23 25 13 -1 24 -6 24 -10z m167 6 c-3
-3 -12 -4 -19 -1 -8 3 -5 6 6 6 11 1 17 -2 13 -5z m399 -34 c-14 -17 -26 -27
-26 -22 0 12 43 62 49 57 2 -2 -8 -18 -23 -35z m104 36 c0 -9 -30 -14 -35 -6
-4 6 3 10 14 10 12 0 21 -2 21 -4z m30 -6 c0 -5 -4 -10 -10 -10 -5 0 -10 5
-10 10 0 6 5 10 10 10 6 0 10 -4 10 -10z m680 -11 c0 -11 -4 -18 -10 -14 -5 3
-7 12 -3 20 7 21 13 19 13 -6z m-2133 5 c-3 -3 -12 -4 -19 -1 -8 3 -5 6 6 6
11 1 17 -2 13 -5z m498 -35 c-3 -4 -1 -10 4 -14 14 -8 -20 -63 -42 -69 -11 -2
-16 -9 -13 -14 3 -6 -1 -13 -10 -16 -8 -3 -12 -2 -9 4 3 6 2 10 -3 10 -5 0 -9
7 -9 15 0 10 10 15 29 15 18 0 28 5 28 15 0 7 8 19 18 24 15 10 15 11 -5 17
-13 3 -23 11 -23 16 0 6 7 7 16 4 9 -3 12 -2 9 5 -4 6 -13 8 -21 5 -14 -6 -19
6 -7 17 8 9 44 -23 38 -34z m430 20 c11 -16 1 -19 -13 -3 -7 8 -8 14 -3 14 5
0 13 -5 16 -11z m-505 -9 c0 -5 -7 -7 -15 -4 -8 4 -15 8 -15 10 0 2 7 4 15 4
8 0 15 -4 15 -10z m30 -23 c0 -37 -14 -51 -39 -38 -25 14 -26 18 -6 18 8 0 15
-4 15 -9 0 -5 4 -7 9 -4 5 4 7 20 4 37 -3 21 -1 29 6 24 6 -3 11 -16 11 -28z
m1570 23 c0 -5 -5 -10 -11 -10 -5 0 -7 5 -4 10 3 6 8 10 11 10 2 0 4 -4 4 -10z
m-1770 -10 c0 -5 -2 -10 -4 -10 -3 0 -8 5 -11 10 -3 6 -1 10 4 10 6 0 11 -4
11 -10z m122 -12 c-7 -7 -12 -8 -12 -2 0 6 3 14 7 17 3 4 9 5 12 2 2 -3 -1
-11 -7 -17z m168 18 c0 -3 -4 -8 -10 -11 -5 -3 -10 -1 -10 4 0 6 5 11 10 11 6
0 10 -2 10 -4z m130 -6 c0 -5 -2 -10 -4 -10 -3 0 -8 5 -11 10 -3 6 -1 10 4 10
6 0 11 -4 11 -10z m580 -1 c0 -5 5 -7 12 -3 7 4 8 3 4 -4 -10 -17 -36 -15 -36
3 0 8 5 15 10 15 6 0 10 -5 10 -11z m-620 -41 c0 -24 -3 -29 -9 -18 -6 8 -7
18 -5 22 3 4 -1 8 -8 8 -9 0 -9 3 2 10 21 13 20 14 20 -22z m-495 3 c3 -5 1
-12 -5 -16 -19 -12 0 -26 20 -15 13 7 21 7 25 0 3 -5 0 -10 -7 -10 -9 0 -9 -3
2 -10 20 -13 0 -13 -39 1 -19 7 -31 18 -31 28 0 28 22 42 35 22z m85 5 c0 -3
-4 -8 -10 -11 -5 -3 -10 -1 -10 4 0 6 5 11 10 11 6 0 10 -2 10 -4z m300 -12
c0 -3 -7 -12 -15 -20 -16 -17 -18 -14 -9 10 6 15 24 23 24 10z m40 -4 c0 -5
-7 -7 -15 -4 -8 4 -15 8 -15 10 0 2 7 4 15 4 8 0 15 -4 15 -10z m41 -9 c5 -40
4 -53 -4 -58 -6 -3 -7 -1 -3 5 4 7 2 12 -5 12 -8 0 -8 5 2 18 11 14 10 13 -9
-2 -19 -16 -22 -17 -22 -3 0 9 5 19 10 22 6 4 8 11 5 16 -3 5 1 6 9 3 9 -3 16
-9 17 -13z m-294 -6 c0 -8 -4 -12 -9 -9 -4 3 -8 9 -8 15 0 5 4 9 8 9 5 0 9 -7
9 -15z m-100 -10 c0 -8 -4 -12 -9 -9 -4 3 -8 9 -8 15 0 5 4 9 8 9 5 0 9 -7 9
-15z m143 5 c0 -5 -2 -10 -4 -10 -3 0 -8 5 -11 10 -3 6 -1 10 4 10 6 0 11 -4
11 -10z m37 4 c-3 -3 -12 -4 -19 -1 -8 3 -5 6 6 6 11 1 17 -2 13 -5z m270 -26
c-3 -8 -6 -5 -6 6 -1 11 2 17 5 13 3 -3 4 -12 1 -19z m-142 -8 c-3 -5 -1 -10
5 -10 7 0 10 -5 8 -12 -6 -16 -78 -40 -78 -26 0 6 -12 3 -27 -7 l-28 -17 25
24 c14 14 27 21 28 16 2 -5 10 -4 18 3 10 8 14 8 14 1 0 -6 7 -9 16 -5 8 3 13
11 10 18 -2 7 -2 16 1 19 10 10 15 7 8 -4z m-328 -25 c0 -8 -6 -16 -14 -19
-11 -4 -11 -1 -3 14 13 24 17 25 17 5z m175 -2 c-6 -3 -10 -9 -6 -14 3 -5 0
-9 -5 -9 -6 0 -11 4 -11 8 0 12 23 32 29 25 3 -3 0 -8 -7 -10z m268 -24 c0
-11 5 -17 10 -14 6 3 10 1 10 -4 0 -6 -6 -11 -14 -11 -9 0 -12 -7 -9 -20 5
-21 5 -21 -30 -4 -20 10 -34 21 -31 26 3 4 14 3 25 -2 22 -12 21 -13 24 18 2
19 0 20 -13 10 -13 -11 -14 -10 -3 10 14 26 31 21 31 -9z m-416 -10 c-3 -5
-10 -7 -15 -3 -5 3 -7 10 -3 15 3 5 10 7 15 3 5 -3 7 -10 3 -15z m466 11 c0
-5 -5 -10 -11 -10 -5 0 -7 5 -4 10 3 6 8 10 11 10 2 0 4 -4 4 -10z m-330 -45
c-8 -10 -7 -14 2 -18 9 -4 9 -6 1 -6 -16 -1 -29 22 -15 27 7 2 9 9 6 14 -4 7
-2 8 5 4 9 -6 9 -11 1 -21z m153 -10 c-3 -9 -8 -14 -10 -11 -3 3 -2 9 2 15 9
16 15 13 8 -4z m-223 -5 c12 -7 10 -9 -8 -7 -12 0 -22 5 -22 9 0 11 12 10 30
-2z m243 -5 c-3 -9 -8 -14 -10 -11 -3 3 -2 9 2 15 9 16 15 13 8 -4z m-198 -5
c3 -6 -1 -7 -9 -4 -18 7 -21 14 -7 14 6 0 13 -4 16 -10z m155 -25 c0 -3 -9 -1
-20 5 -11 6 -18 15 -15 21 6 9 35 -12 35 -26z m-69 2 c-10 -9 -11 -8 -5 6 3
10 9 15 12 12 3 -3 0 -11 -7 -18z m-111 -3 c0 -8 -4 -12 -10 -9 -5 3 -10 10
-10 16 0 5 5 9 10 9 6 0 10 -7 10 -16z m30 -4 c0 -5 -2 -10 -4 -10 -3 0 -8 5
-11 10 -3 6 -1 10 4 10 6 0 11 -4 11 -10z"/>
<path d="M4120 4059 c0 -5 5 -7 10 -4 6 3 10 8 10 11 0 2 -4 4 -10 4 -5 0 -10
-5 -10 -11z"/>
<path d="M4235 4060 c3 -5 8 -10 11 -10 2 0 4 5 4 10 0 6 -5 10 -11 10 -5 0
-7 -4 -4 -10z"/>
<path d="M4255 3450 c-4 -6 3 -10 14 -10 25 0 27 6 6 13 -8 4 -17 2 -20 -3z"/>
<path d="M3995 4910 c-16 -16 -25 -30 -22 -30 14 0 55 31 61 46 9 23 -8 16
-39 -16z"/>
<path d="M4117 4816 c-15 -7 -24 -16 -20 -20 4 -4 0 -4 -9 -1 -9 4 -44 -3 -77
-15 -33 -13 -67 -20 -76 -17 -20 8 -20 -31 1 -61 31 -44 102 -18 166 61 34 41
52 68 46 66 -2 0 -15 -6 -31 -13z"/>
<path d="M3371 4688 c-52 -15 -78 -36 -101 -82 -23 -49 -25 -66 -7 -90 13 -17
16 -17 70 9 32 14 55 31 52 36 -4 5 1 9 9 9 20 0 23 6 31 73 8 63 8 63 -54 45z"/>
<path d="M1788 4487 c-112 -45 -129 -55 -139 -82 -7 -16 -14 -32 -15 -34 -2
-1 -18 9 -37 23 -19 14 -37 26 -42 26 -21 0 -234 -104 -229 -112 4 -5 -2 -9
-12 -7 -29 3 -72 -11 -78 -27 -3 -8 -2 -14 2 -14 9 0 143 54 168 68 55 31 145
64 159 58 14 -5 16 -18 12 -83 -3 -43 -12 -112 -21 -153 -8 -41 -13 -76 -12
-78 2 -1 18 4 37 12 34 14 34 15 52 123 9 59 23 130 30 157 12 46 14 49 72 73
33 13 78 32 100 42 22 10 50 22 63 25 12 4 22 14 22 22 0 8 -1 14 -2 13 -2 0
-60 -24 -130 -52z"/>
<path d="M2743 4499 c-66 -32 -138 -158 -107 -187 20 -19 48 -14 85 13 19 14
41 28 50 31 9 3 17 15 16 27 0 12 4 48 8 80 4 32 4 57 -1 57 -5 0 -28 -9 -51
-21z"/>
<path d="M2263 4340 c-30 -18 -62 -60 -46 -60 4 0 2 -4 -6 -9 -8 -5 -15 -27
-15 -53 -1 -41 0 -43 30 -46 40 -4 76 25 103 84 42 88 9 130 -66 84z"/>
<path d="M1202 4268 c-17 -17 -15 -68 4 -89 19 -21 21 -108 5 -194 -19 -100
-20 -126 -8 -122 14 4 25 51 34 147 11 120 8 157 -10 178 -12 13 -16 30 -13
56 5 40 5 41 -12 24z"/>
<path d="M3251 4233 c-37 -4 -42 -7 -38 -24 3 -10 1 -22 -4 -25 -14 -8 -11
-24 4 -24 18 0 97 57 97 70 0 6 -3 9 -7 8 -5 -1 -28 -3 -52 -5z"/>
<path d="M4815 4090 c-3 -5 -2 -10 4 -10 6 0 7 -7 4 -17 -4 -11 -3 -14 5 -9
14 9 16 46 3 46 -6 0 -13 -4 -16 -10z"/>
<path d="M2680 4024 c-25 -14 -36 -22 -25 -18 11 3 30 9 42 11 12 3 24 11 27
19 7 17 10 18 -44 -12z"/>
<path d="M3675 3992 c-12 -9 -27 -25 -35 -35 -12 -16 -8 -15 23 3 20 12 37 28
37 36 0 17 -1 17 -25 -4z"/>
<path d="M3072 3957 c-18 -18 -32 -36 -32 -40 0 -15 53 -6 66 11 7 9 36 22 66
28 l53 12 -47 1 c-26 0 -50 6 -53 11 -10 16 -19 12 -53 -23z"/>
<path d="M2720 3894 c0 -9 5 -12 13 -8 9 6 9 4 -1 -8 -7 -9 -20 -59 -27 -110
-8 -51 -24 -140 -35 -197 -12 -58 -19 -113 -17 -123 3 -10 0 -21 -5 -24 -14
-9 -3 -157 14 -210 16 -47 44 -61 35 -18 -11 58 27 83 68 44 l22 -21 27 41 26
40 -24 0 c-14 0 -37 11 -53 24 -86 74 -42 316 83 455 l46 51 -46 -1 c-50 -2
-81 17 -97 59 -10 25 -29 30 -29 6z"/>
<path d="M3736 3870 c-33 -11 -62 -23 -65 -27 -6 -8 -9 -9 -57 -11 -22 -2 -25
-6 -21 -31 3 -17 8 -35 12 -40 10 -17 61 -13 93 7 31 18 99 92 86 92 -4 0 1 7
12 15 24 18 13 18 -60 -5z"/>
<path d="M4375 3821 c-3 -5 -1 -12 5 -16 5 -3 10 1 10 9 0 18 -6 21 -15 7z"/>
<path d="M3032 3755 c-72 -22 -112 -72 -112 -140 0 -46 17 -52 72 -26 65 30
86 52 93 96 14 91 14 91 -53 70z"/>
<path d="M2440 3583 c-38 -7 -75 -38 -108 -90 -38 -60 -50 -102 -31 -114 25
-16 52 -10 101 24 38 25 48 37 46 57 -1 14 1 30 5 36 7 12 22 95 16 93 -2 -1
-15 -4 -29 -6z"/>
<path d="M1945 3418 c-36 -19 -65 -51 -65 -70 0 -10 -4 -18 -10 -18 -15 0 -12
-76 4 -89 18 -15 54 -1 87 35 33 36 45 59 53 105 5 29 3 38 -10 43 -22 8 -36
7 -59 -6z m-25 -48 c0 -5 -4 -10 -10 -10 -5 0 -10 5 -10 10 0 6 5 10 10 10 6
0 10 -4 10 -10z m24 -75 c-4 -8 -8 -15 -10 -15 -2 0 -4 7 -4 15 0 8 4 15 10
15 5 0 7 -7 4 -15z"/>
<path d="M1243 3339 c-27 -8 -33 -15 -33 -38 0 -16 -3 -43 -6 -60 -5 -25 -3
-31 10 -31 10 0 14 -4 11 -10 -8 -13 -1 -13 39 4 44 18 86 74 86 114 0 30 -2
32 -37 31 -21 0 -53 -5 -70 -10z m17 -83 c0 -3 -4 -8 -10 -11 -5 -3 -10 -1
-10 4 0 6 5 11 10 11 6 0 10 -2 10 -4z"/>
<path d="M2919 3296 c-30 -7 -44 -16 -41 -24 2 -7 -2 -19 -8 -28 -38 -45 38
-14 84 35 32 34 32 34 -35 17z"/>
<path d="M4517 3226 c-4 -10 -5 -21 -2 -24 9 -9 17 6 13 25 -3 17 -4 17 -11
-1z"/>
<path d="M1195 3190 c-3 -5 -1 -10 4 -10 6 0 11 5 11 10 0 6 -2 10 -4 10 -3 0
-8 -4 -11 -10z"/>
<path d="M1510 1921 c0 -17 30 -25 43 -12 8 8 8 11 0 11 -6 0 -18 3 -27 6 -9
3 -16 1 -16 -5z"/>
</g>
</svg>
