<?xml version="1.0" standalone="no"?>
<!DOCTYPE svg PUBLIC "-//W3C//DTD SVG 20010904//EN"
 "http://www.w3.org/TR/2001/REC-SVG-20010904/DTD/svg10.dtd">
<svg version="1.0" xmlns="http://www.w3.org/2000/svg"
 width="2232.000000pt" height="1126.000000pt" viewBox="0 0 2232.000000 1126.000000"
 preserveAspectRatio="xMidYMid meet">

<g transform="translate(0.000000,1126.000000) scale(0.100000,-0.100000)"
fill="#000000" stroke="none">
<path d="M11055 11234 c-800 -108 -1489 -606 -1866 -1346 -87 -172 -149 -330
-194 -494 -43 -156 -44 -211 -9 -283 88 -176 336 -141 389 55 43 162 112 352
169 470 264 539 734 939 1285 1094 209 58 264 65 536 65 234 0 258 -2 378 -28
774 -166 1361 -732 1584 -1530 30 -106 44 -139 70 -168 120 -133 329 -72 362
105 11 60 -5 143 -61 316 -155 481 -449 917 -822 1220 -355 288 -806 479
-1251 530 -124 14 -449 11 -570 -6z"/>
<path d="M3125 11039 c-1384 -86 -2459 -398 -2895 -839 -152 -153 -214 -284
-215 -450 0 -223 121 -407 380 -576 358 -232 966 -401 1695 -469 137 -12 583
-36 655 -34 11 0 -119 29 -290 63 -1026 208 -1718 471 -2008 763 -157 158
-165 272 -30 414 292 307 1172 561 2288 663 385 36 528 41 1100 41 573 0 709
-5 1105 -41 1222 -110 2138 -413 2297 -760 52 -114 10 -226 -136 -367 -217
-208 -602 -395 -1201 -582 -113 -35 -198 -64 -189 -65 79 -2 480 69 692 121
732 183 1127 498 1093 871 -41 447 -699 839 -1796 1072 -354 75 -712 125
-1164 162 -223 19 -1156 28 -1381 13z"/>
<path d="M18105 11044 c-849 -52 -1488 -157 -2045 -336 -781 -251 -1200 -586
-1200 -958 0 -397 478 -713 1340 -884 130 -26 403 -66 442 -66 13 1 -49 23
-137 50 -343 104 -560 187 -800 304 -390 191 -605 392 -605 566 0 322 718 638
1805 794 573 83 1064 111 1765 103 571 -7 914 -29 1365 -88 1034 -135 1799
-417 1946 -715 36 -73 36 -112 -2 -191 -31 -65 -164 -195 -274 -268 -401 -265
-1073 -480 -2125 -678 -37 -7 281 2 465 14 805 50 1514 234 1908 496 153 101
287 258 333 388 10 29 19 92 22 151 5 111 -9 176 -55 269 -231 462 -1156 838
-2434 989 -418 50 -582 58 -1134 61 -286 1 -547 1 -580 -1z"/>
<path d="M10566 9534 c-201 -44 -399 -163 -524 -317 l-53 -65 33 -66 c18 -36
35 -66 38 -66 3 0 19 19 35 41 66 91 223 190 351 223 78 20 222 21 297 1 187
-49 325 -198 357 -385 50 -298 -201 -622 -523 -674 -140 -23 -297 -83 -423
-161 -105 -66 -104 -63 -49 -139 l47 -64 72 38 c171 91 366 121 552 85 42 -8
84 -17 93 -20 13 -4 16 5 16 54 0 51 5 65 37 112 53 77 98 104 165 102 53 -2
53 -2 119 65 202 204 292 490 232 742 -6 25 -27 81 -48 125 -112 243 -354 386
-650 384 -58 0 -136 -7 -174 -15z"/>
<path d="M3136 9504 c-140 -51 -196 -190 -147 -366 29 -106 89 -242 152 -346
74 -120 262 -307 383 -381 409 -253 919 -231 1301 53 203 152 355 366 440 619
46 138 48 220 7 298 -78 150 -263 182 -381 67 -39 -38 -63 -85 -81 -153 -6
-27 -33 -93 -58 -145 -39 -81 -59 -108 -136 -185 -152 -152 -302 -211 -511
-202 -184 8 -309 63 -446 197 -93 91 -148 183 -190 315 -37 115 -66 163 -117
198 -68 46 -145 57 -216 31z"/>
<path d="M17586 9504 c-142 -52 -196 -190 -146 -369 31 -110 88 -239 151 -343
74 -118 262 -307 380 -380 413 -253 922 -233 1304 52 206 154 355 363 441 622
43 130 47 206 14 281 -26 59 -51 87 -110 121 -37 22 -57 27 -110 27 -77 -1
-129 -24 -181 -82 -37 -41 -43 -54 -82 -174 -38 -121 -90 -204 -186 -299 -148
-147 -301 -206 -506 -197 -185 8 -310 64 -446 197 -93 91 -148 183 -190 315
-37 115 -66 163 -117 198 -68 46 -145 57 -216 31z"/>
<path d="M12045 9354 c-11 -2 -45 -9 -75 -15 -30 -6 -82 -25 -115 -42 -77 -41
-227 -190 -278 -277 -70 -122 -105 -284 -87 -410 23 -161 77 -259 219 -400
100 -100 159 -150 481 -415 175 -143 337 -304 389 -384 46 -72 79 -166 88
-256 5 -45 12 -64 28 -77 44 -34 95 -183 95 -276 0 -31 2 -33 17 -21 33 28
115 146 149 214 70 143 95 350 59 488 -46 178 -142 285 -585 652 -354 294
-505 457 -561 604 -30 78 -36 207 -15 291 46 180 211 306 406 311 l55 2 -45 8
c-46 8 -189 10 -225 3z"/>
<path d="M11010 8176 c-52 -35 -92 -114 -88 -173 3 -52 4 -53 129 -123 35 -19
92 -64 129 -100 186 -183 243 -432 154 -668 -22 -58 -22 -63 -6 -69 106 -39
206 -101 300 -188 l60 -55 45 88 c25 49 58 128 73 178 24 78 27 106 28 229 1
172 -14 236 -89 390 -111 226 -302 393 -560 490 -83 32 -130 32 -175 1z"/>
<path d="M4029 8063 c-97 -50 -146 -142 -136 -258 7 -98 57 -172 142 -211 l50
-24 2208 0 c1214 0 2207 -2 2207 -4 0 -32 36 -271 56 -370 156 -789 625 -1496
1279 -1931 487 -324 1038 -481 1615 -462 533 18 1025 180 1470 485 628 429
1080 1114 1240 1879 23 113 60 353 60 395 0 4 991 8 2201 8 1642 0 2212 3
2240 12 98 29 169 134 169 248 -1 110 -50 191 -145 236 l-50 24 -2344 0
c-1811 0 -2353 -3 -2385 -12 -57 -17 -138 -99 -155 -158 -7 -25 -17 -122 -22
-216 -27 -558 -215 -1063 -555 -1489 -391 -489 -918 -788 -1544 -876 -128 -18
-433 -15 -574 5 -495 71 -928 285 -1295 641 -302 292 -508 622 -641 1025 -81
243 -117 445 -129 720 -6 132 -12 174 -28 210 -25 56 -99 125 -149 139 -27 8
-749 11 -2385 11 l-2345 0 -55 -27z"/>
<path d="M9949 7899 c-162 -170 -246 -365 -256 -595 -8 -186 30 -336 129 -501
46 -78 184 -221 270 -280 280 -193 626 -249 970 -157 79 21 259 99 308 133 11
8 -2 26 -67 94 -45 47 -103 117 -129 156 -45 68 -48 71 -68 56 -97 -69 -226
-128 -335 -151 -100 -21 -281 -18 -377 6 -343 86 -571 367 -551 679 10 164 71
294 197 422 l76 76 -46 61 c-25 34 -49 61 -53 62 -5 0 -35 -28 -68 -61z"/>
<path d="M10845 7045 c186 -36 274 -100 398 -285 96 -145 220 -267 318 -313
99 -47 154 -57 344 -64 251 -9 397 20 588 120 194 101 267 186 267 312 0 75
-23 155 -54 191 -27 32 -46 25 -46 -18 0 -99 -66 -244 -150 -329 -97 -98 -214
-142 -370 -141 -178 1 -276 50 -466 232 -175 167 -277 228 -464 277 -78 21
-125 26 -265 29 -167 3 -169 3 -100 -11z"/>
<path d="M11275 4390 c-449 -70 -818 -336 -1030 -742 -259 -496 -224 -1145 87
-1606 313 -464 869 -691 1428 -582 131 25 205 51 345 120 266 132 488 355 625
629 54 110 114 291 136 416 25 140 25 451 0 590 -95 526 -446 949 -926 1114
-140 49 -226 62 -420 66 -102 2 -212 0 -245 -5z m336 -834 c263 -56 409 -283
409 -636 0 -149 -20 -249 -69 -355 -63 -135 -163 -225 -294 -267 -89 -29 -257
-29 -348 1 -161 51 -281 181 -332 361 -80 277 -18 611 142 771 117 117 305
164 492 125z"/>
<path d="M4670 2905 l0 -1445 615 0 c365 0 655 4 713 11 555 60 983 401 1156
919 59 178 71 265 71 530 -1 215 -3 257 -23 343 -134 599 -537 981 -1132 1072
-76 12 -227 15 -747 15 l-653 0 0 -1445z m1263 636 c106 -28 188 -73 261 -146
71 -70 116 -149 148 -260 18 -66 22 -105 22 -220 0 -152 -19 -246 -68 -343
-61 -121 -178 -220 -316 -269 -69 -25 -90 -27 -267 -31 l-193 -4 0 644 c0 355
3 648 8 653 14 15 323 -3 405 -24z"/>
<path d="M7550 2905 l0 -1445 430 0 430 0 1 518 0 517 260 -517 259 -518 471
0 c258 0 468 3 466 8 -79 137 -587 1095 -584 1099 3 3 39 20 79 37 100 43 191
106 268 186 335 344 313 980 -44 1306 -87 80 -206 150 -323 190 -182 62 -211
64 -1000 64 l-713 0 0 -1445z m1325 668 c86 -46 125 -117 125 -228 0 -110 -35
-175 -115 -218 -37 -20 -58 -22 -257 -25 l-218 -4 0 252 0 252 213 -4 c194 -3
215 -5 252 -25z"/>
<path d="M13210 2905 l0 -1445 425 0 425 0 0 728 c1 688 2 726 18 706 9 -11
215 -339 457 -727 l440 -706 428 -1 427 0 0 1445 0 1445 -425 0 -425 0 0 -736
c0 -404 -4 -733 -8 -730 -5 3 -210 334 -457 735 l-449 731 -428 0 -428 0 0
-1445z"/>
<path d="M16230 2905 l0 -1445 910 0 910 0 0 360 0 360 -485 0 -485 0 0 205 0
205 428 2 427 3 3 337 2 338 -427 2 -428 3 -3 183 -2 182 485 0 485 0 0 355 0
355 -910 0 -910 0 0 -1445z"/>
<path d="M7069 961 c-136 -44 -234 -153 -274 -308 -19 -73 -19 -241 0 -312 60
-228 252 -357 480 -324 156 22 270 113 328 261 l17 42 -45 0 c-43 0 -45 -1
-69 -48 -102 -202 -388 -240 -540 -71 -161 178 -128 526 62 647 167 107 413
36 487 -141 14 -35 18 -37 60 -37 25 0 45 2 45 5 0 2 -11 28 -24 57 -74 165
-206 249 -390 247 -49 0 -103 -7 -137 -18z"/>
<path d="M10952 961 c-73 -27 -112 -53 -166 -111 -54 -57 -100 -148 -117 -229
-15 -75 -6 -241 17 -311 102 -305 487 -401 708 -176 96 96 136 205 136 366 0
156 -48 277 -146 370 -83 79 -147 104 -274 107 -85 3 -115 0 -158 -16z m283
-90 c225 -99 285 -463 111 -667 -92 -107 -276 -140 -408 -73 -208 106 -260
473 -93 657 73 82 151 114 265 109 50 -3 92 -11 125 -26z"/>
<path d="M13282 961 c-73 -27 -112 -53 -166 -111 -54 -57 -100 -148 -117 -229
-17 -81 -6 -242 21 -319 59 -167 200 -276 376 -289 211 -16 393 119 449 332
19 73 19 232 1 301 -34 129 -132 250 -243 302 -79 36 -240 43 -321 13z m265
-83 c238 -89 310 -463 129 -674 -92 -108 -275 -141 -408 -73 -208 106 -260
473 -93 657 94 105 239 140 372 90z"/>
<path d="M14702 964 c-203 -54 -326 -259 -309 -513 17 -252 172 -420 402 -438
170 -13 329 75 403 224 34 68 48 122 58 216 l7 67 -232 0 -232 0 3 -32 3 -33
188 -3 187 -2 0 -24 c0 -45 -40 -151 -75 -199 -100 -135 -273 -175 -429 -98
-76 37 -118 82 -159 170 -27 56 -31 79 -35 173 -4 92 -1 118 17 175 55 169
186 263 350 251 37 -3 87 -14 113 -26 60 -26 129 -90 159 -147 23 -43 26 -45
67 -45 40 0 43 2 37 23 -26 84 -113 190 -189 229 -94 48 -228 61 -334 32z"/>
<path d="M17627 966 c-98 -35 -149 -112 -149 -223 0 -146 49 -194 281 -278
153 -56 201 -106 201 -207 0 -65 -31 -124 -79 -152 -44 -25 -151 -27 -196 -4
-53 28 -115 110 -115 153 0 11 -11 15 -45 15 -40 0 -45 -2 -45 -22 0 -39 45
-122 85 -157 66 -58 118 -75 220 -75 72 0 98 4 130 21 87 45 126 105 133 203
6 84 -11 142 -54 190 -39 42 -82 65 -222 116 -52 19 -110 43 -128 55 -99 61
-105 213 -11 283 24 17 43 21 111 21 75 0 86 -2 120 -28 20 -16 47 -49 59 -73
20 -42 23 -44 65 -44 43 0 44 1 37 28 -11 45 -53 110 -90 138 -52 39 -101 53
-190 53 -44 0 -97 -6 -118 -13z"/>
<path d="M4670 935 l0 -35 130 0 130 0 0 -440 0 -440 40 0 40 0 0 440 0 440
130 0 130 0 0 35 0 35 -300 0 -300 0 0 -35z"/>
<path d="M5780 495 l0 -475 240 0 240 0 0 35 0 35 -195 0 -195 0 0 190 0 190
175 0 175 0 0 30 0 30 -175 0 -175 0 0 185 0 185 195 0 195 0 0 35 0 35 -240
0 -240 0 0 -475z"/>
<path d="M8170 495 l0 -475 45 0 45 0 0 225 0 225 250 0 250 0 0 -225 0 -225
40 0 40 0 0 475 0 475 -40 0 -40 0 0 -210 0 -210 -250 0 -250 0 0 210 0 210
-45 0 -45 0 0 -475z"/>
<path d="M9430 495 l0 -475 40 0 40 0 0 395 c0 217 3 395 8 395 4 0 117 -178
252 -395 l244 -395 43 0 43 0 0 475 0 475 -40 0 -40 0 0 -395 c0 -217 -3 -395
-7 -395 -5 0 -118 178 -252 395 l-244 395 -44 0 -43 0 0 -475z"/>
<path d="M12090 495 l0 -475 205 0 205 0 0 35 0 35 -162 2 -163 3 -3 438 -2
437 -40 0 -40 0 0 -475z"/>
<path d="M15810 495 l0 -475 40 0 40 0 0 475 0 475 -40 0 -40 0 0 -475z"/>
<path d="M16480 495 l0 -475 240 0 240 0 0 35 0 35 -195 0 -195 0 0 190 0 190
175 0 175 0 0 30 0 30 -175 0 -175 0 0 185 0 185 195 0 195 0 0 35 0 35 -240
0 -240 0 0 -475z"/>
</g>
</svg>
