<?xml version="1.0" standalone="no"?>
<!DOCTYPE svg PUBLIC "-//W3C//DTD SVG 20010904//EN"
 "http://www.w3.org/TR/2001/REC-SVG-20010904/DTD/svg10.dtd">
<svg version="1.0" xmlns="http://www.w3.org/2000/svg"
 width="600.000000pt" height="600.000000pt" viewBox="0 0 600.000000 600.000000"
 preserveAspectRatio="xMidYMid meet">

<g transform="translate(0.000000,600.000000) scale(0.100000,-0.100000)"
fill="#000000" stroke="none">
<path d="M3475 5248 c-45 -26 -44 -9 -45 -706 0 -682 0 -689 39 -719 12 -9
162 -12 624 -13 l609 0 29 29 29 29 0 667 0 667 -29 29 -29 29 -604 0 c-435
-1 -609 -4 -623 -12z m1205 -63 c0 -13 -73 -15 -600 -15 -527 0 -600 2 -600
15 0 13 73 15 600 15 527 0 600 -2 600 -15z m65 -708 l0 -619 -24 -19 c-22
-18 -47 -19 -628 -19 l-604 0 -24 25 -25 24 0 616 0 615 653 -2 652 -3 0 -618z"/>
<path d="M4110 4805 l0 -255 280 0 280 0 0 255 0 255 -280 0 -280 0 0 -255z
m540 142 l0 -94 -38 -11 c-23 -7 -61 -35 -98 -72 -53 -51 -67 -60 -98 -60 -31
0 -46 9 -89 49 -67 62 -85 71 -146 71 l-51 0 0 105 0 105 260 0 260 0 0 -93z"/>
<path d="M4184 4975 c-21 -32 -12 -69 22 -92 51 -33 114 19 93 76 -13 32 -26
41 -66 41 -24 0 -37 -7 -49 -25z m94 3 c18 -18 14 -63 -8 -83 -45 -41 -110 18
-76 70 18 27 63 34 84 13z"/>
<path d="M3643 4483 c76 -2 198 -2 270 0 73 1 11 3 -138 3 -148 0 -208 -2
-132 -3z"/>
<path d="M4263 4483 c76 -2 198 -2 270 0 73 1 11 3 -138 3 -148 0 -208 -2
-132 -3z"/>
<path d="M3643 4413 c76 -2 198 -2 270 0 73 1 11 3 -138 3 -148 0 -208 -2
-132 -3z"/>
<path d="M4263 4413 c76 -2 198 -2 270 0 73 1 11 3 -138 3 -148 0 -208 -2
-132 -3z"/>
<path d="M3643 4343 c76 -2 198 -2 270 0 73 1 11 3 -138 3 -148 0 -208 -2
-132 -3z"/>
<path d="M4263 4343 c76 -2 198 -2 270 0 73 1 11 3 -138 3 -148 0 -208 -2
-132 -3z"/>
<path d="M3643 4213 c76 -2 198 -2 270 0 73 1 11 3 -138 3 -148 0 -208 -2
-132 -3z"/>
<path d="M4263 4213 c76 -2 198 -2 270 0 73 1 11 3 -138 3 -148 0 -208 -2
-132 -3z"/>
<path d="M3643 4143 c76 -2 198 -2 270 0 73 1 11 3 -138 3 -148 0 -208 -2
-132 -3z"/>
<path d="M4263 4143 c76 -2 198 -2 270 0 73 1 11 3 -138 3 -148 0 -208 -2
-132 -3z"/>
<path d="M3643 4073 c76 -2 198 -2 270 0 73 1 11 3 -138 3 -148 0 -208 -2
-132 -3z"/>
<path d="M4263 4073 c76 -2 198 -2 270 0 73 1 11 3 -138 3 -148 0 -208 -2
-132 -3z"/>
<path d="M3643 4003 c76 -2 198 -2 270 0 73 1 11 3 -138 3 -148 0 -208 -2
-132 -3z"/>
<path d="M4263 4003 c76 -2 198 -2 270 0 73 1 11 3 -138 3 -148 0 -208 -2
-132 -3z"/>
<path d="M3643 3933 c76 -2 198 -2 270 0 73 1 11 3 -138 3 -148 0 -208 -2
-132 -3z"/>
<path d="M4263 3933 c76 -2 198 -2 270 0 73 1 11 3 -138 3 -148 0 -208 -2
-132 -3z"/>
<path d="M1712 5080 c-60 -14 -61 -21 -62 -280 0 -129 -3 -272 -7 -317 l-6
-83 520 0 519 0 -3 313 c-4 314 -8 347 -42 364 -21 10 -877 14 -919 3z m931
-28 c15 -14 17 -40 17 -279 l0 -263 -500 0 -500 0 0 263 c0 242 1 265 18 280
16 15 66 17 453 19 239 2 448 1 464 -1 17 -2 38 -10 48 -19z m-23 -602 c0 -7
-160 -10 -460 -10 -300 0 -460 3 -460 10 0 7 160 10 460 10 300 0 460 -3 460
-10z"/>
<path d="M2087 4898 c-38 -22 -77 -86 -77 -124 1 -37 39 -104 72 -124 69 -42
168 -17 204 52 38 72 13 158 -56 197 -48 27 -95 26 -143 -1z m135 -124 c1 -9
-100 -74 -114 -74 -5 0 -8 34 -8 76 l0 76 61 -34 c33 -19 61 -39 61 -44z"/>
<path d="M2907 4506 c-73 -27 -112 -82 -105 -150 3 -22 8 -49 12 -58 6 -13 4
-18 -7 -18 -18 0 -67 -38 -67 -53 0 -6 13 1 28 16 15 15 36 27 46 27 16 0 14
-4 -8 -21 -14 -11 -26 -25 -26 -31 0 -5 14 2 31 16 22 19 41 26 67 25 l37 -2
-40 -6 c-53 -9 -62 -15 -96 -69 -16 -25 -29 -42 -29 -36 0 5 7 20 16 32 9 13
13 26 10 29 -11 11 -48 -88 -53 -142 -3 -30 -1 -68 6 -86 9 -27 9 -34 -4 -41
-22 -13 -19 -47 8 -85 12 -18 25 -33 28 -33 3 0 14 -7 25 -16 10 -8 13 -13 7
-9 -26 13 1 -30 49 -79 36 -36 45 -52 36 -58 -24 -15 -108 -8 -148 12 -22 11
-58 20 -80 20 -60 0 -112 -58 -190 -212 l-62 -122 31 -28 31 -28 -39 -157
c-57 -235 -56 -223 -21 -271 l29 -41 -57 -4 c-55 -3 -54 -3 16 -5 39 -1 72 -4
72 -7 0 -2 -12 -30 -27 -60 l-27 -56 -249 2 c-137 0 -245 4 -241 9 25 23 195
140 204 140 24 0 5 -20 -70 -74 -44 -32 -80 -60 -80 -63 0 -6 15 4 91 59 l67
48 93 -4 94 -5 -84 9 c-59 6 -87 14 -93 24 -5 9 -14 16 -20 16 -11 0 -195
-129 -222 -156 -22 -22 -20 -41 8 -67 l24 -23 -54 -114 c-30 -64 -53 -130 -54
-148 0 -43 16 -72 40 -72 20 0 20 -11 20 -750 0 -733 0 -750 19 -750 16 0 20
10 26 62 3 35 5 131 3 213 l-4 150 -2 -170 c-2 -178 -9 -245 -23 -245 -5 0 -9
330 -9 745 l0 745 32 0 31 0 -6 -252 c-4 -139 -9 -379 -11 -533 -3 -154 3 -40
11 253 9 292 20 532 25 532 4 0 8 -249 8 -553 0 -305 3 -556 6 -560 3 -3 12
-3 20 0 11 4 14 24 12 82 l-2 76 -3 -72 c-2 -40 -8 -73 -13 -73 -6 0 -10 207
-10 550 l0 550 27 0 26 0 -6 -207 c-4 -115 -9 -327 -11 -473 -4 -261 -4 -262
4 -60 4 113 11 325 15 473 l7 267 104 0 c100 0 104 -1 94 -19 -24 -46 1 -81
59 -81 l37 0 11 -77 c19 -128 92 -473 117 -553 50 -156 65 -241 65 -372 1 -43
5 -78 11 -78 5 0 11 -45 12 -102 2 -72 7 -102 16 -104 7 -1 8 0 2 3 -14 7 -14
413 0 413 7 0 10 -66 10 -196 -1 -108 1 -198 4 -202 3 -3 6 83 6 191 l0 197
30 0 c36 0 70 -47 70 -97 0 -21 7 -37 22 -47 l22 -15 -37 -90 c-20 -50 -37
-100 -37 -111 0 -64 69 -115 110 -82 21 18 28 48 49 223 16 123 14 155 -8 176
-26 24 -29 62 -8 94 17 25 17 32 2 100 -8 41 -22 79 -31 86 -18 13 -20 25 -34
215 -13 188 -13 327 1 366 l10 30 162 -5 c103 -4 174 -11 196 -19 19 -8 61
-21 95 -30 34 -8 78 -20 98 -25 l38 -10 3 -217 2 -217 3 218 c1 170 5 218 15
215 9 -4 12 -131 14 -584 1 -318 -1 -574 -3 -568 -3 7 -9 167 -13 355 l-8 344
1 -265 c1 -379 4 -450 22 -450 11 0 14 21 14 105 0 63 4 105 10 105 7 0 10
163 10 470 0 387 2 470 13 470 8 0 40 -9 72 -20 74 -26 107 -17 170 48 53 53
60 73 52 153 l-5 59 104 0 c57 0 105 -1 106 -2 0 -2 4 -88 8 -193 l7 -190 -1
193 -1 192 28 0 27 0 0 -551 c0 -436 -3 -550 -12 -547 -10 4 -14 53 -18 184
l-6 179 -2 -172 c-1 -94 1 -178 4 -187 3 -9 15 -16 25 -16 18 0 19 17 19 557
0 306 3 553 6 550 4 -4 10 -109 15 -234 l7 -228 -3 233 -2 232 28 0 29 0 3
-382 2 -383 3 383 c2 366 3 382 21 382 27 0 40 20 42 65 2 39 -39 143 -123
310 -34 68 -42 75 -80 75 -18 0 -29 7 -33 20 -9 28 -72 42 -168 36 -45 -3 -85
-5 -88 -6 -3 0 -11 -11 -17 -25 -11 -24 -14 -25 -116 -25 -58 0 -107 4 -110 8
-3 5 39 24 94 41 68 23 111 44 140 69 42 35 42 35 38 96 -3 46 -20 101 -71
226 l-67 165 24 20 25 20 -50 85 c-88 150 -129 207 -155 218 -35 17 -100 15
-135 -3 -30 -16 -142 -25 -154 -13 -8 8 25 68 37 68 17 0 48 41 48 63 0 12 8
27 18 34 30 18 56 81 42 99 -7 8 -18 14 -25 14 -11 0 -11 8 -3 37 13 49 6 129
-16 175 -10 21 -36 55 -57 76 l-38 39 24 23 c14 13 25 28 25 34 0 6 -5 3 -11
-6 -5 -10 -19 -23 -30 -29 -20 -10 -20 -9 -5 20 61 117 -82 247 -217 197z
m-63 -331 c-9 -14 -18 -25 -21 -25 -5 0 5 18 20 38 17 22 18 13 1 -13z m210
-49 c21 -14 34 -26 29 -26 -17 0 -100 68 -107 87 -4 11 2 8 16 -9 13 -15 41
-38 62 -52z m-83 -1 c6 -20 6 -26 -1 -19 -5 5 -12 25 -15 44 -5 36 -1 29 16
-25z m27 -152 c15 -16 38 -36 52 -46 l25 -18 -25 7 c-63 15 -108 69 -115 139
l-6 50 21 -52 c12 -29 33 -65 48 -80z m135 120 c-7 -2 -19 -2 -25 0 -7 3 -2 5
12 5 14 0 19 -2 13 -5z m-58 -81 c11 -6 14 -12 7 -12 -7 0 -32 19 -56 43 -28
28 -30 32 -6 11 19 -17 44 -36 55 -42z m-106 -61 c34 -34 74 -51 156 -66 l30
-6 -30 14 c-30 14 -29 14 20 9 28 -2 51 -5 52 -6 1 0 -1 -13 -4 -28 -5 -27 -7
-28 -58 -22 -103 12 -135 -10 -135 -93 0 -51 -1 -54 -17 -42 -16 13 -17 12 -4
-4 21 -26 36 -15 32 24 -3 33 -3 34 17 16 11 -10 36 -21 56 -24 20 -3 36 -9
36 -14 0 -15 -66 -94 -88 -105 -12 -6 -26 -14 -29 -18 -10 -10 29 5 45 17 19
15 21 7 10 -53 -23 -132 -78 -132 -119 0 -25 80 -24 88 4 62 13 -12 30 -22 38
-22 8 0 1 8 -16 18 -16 11 -48 39 -70 63 l-39 44 36 6 c55 9 88 34 88 68 0 15
-3 31 -7 35 -8 7 -9 11 -12 37 -2 19 -66 39 -97 30 -26 -8 -25 -9 14 -8 31 1
48 -4 63 -20 l22 -21 -60 5 c-37 3 -68 1 -81 -6 -20 -10 -23 -9 -32 15 -9 23
-6 31 30 70 22 24 52 69 67 100 l28 56 9 -47 c6 -34 19 -58 45 -84z m234 32
c-13 -2 -35 -2 -50 0 -16 2 -5 4 22 4 28 0 40 -2 28 -4z m-437 -99 c16 -39 18
-54 5 -54 -15 0 -53 69 -47 86 8 21 25 8 42 -32z m484 25 c0 -22 -36 -79 -50
-79 -10 0 8 70 22 88 16 18 28 15 28 -9z m-305 -81 c51 -23 21 -83 -47 -94
-26 -5 -39 -1 -53 12 -10 11 -23 19 -29 19 -6 0 -11 6 -10 13 1 6 2 21 3 31 2
30 86 42 136 19z m209 6 c21 -8 20 -32 -4 -71 -22 -37 -52 -43 -100 -18 -23
12 -30 22 -30 45 0 17 7 33 18 39 19 11 91 14 116 5z m25 -70 c-18 -22 -22
-11 -7 22 10 21 14 24 16 10 2 -9 -2 -24 -9 -32z m-454 -105 c25 -14 57 -21
90 -21 27 0 53 -5 57 -12 5 -7 8 -5 8 7 0 32 19 17 31 -25 35 -131 66 -177
110 -163 25 8 37 39 53 130 l12 69 74 2 c44 1 91 8 114 18 21 9 56 16 79 16
32 0 46 -6 71 -33 28 -30 146 -219 161 -258 4 -12 -19 -32 -88 -77 -52 -34
-101 -64 -110 -68 -14 -5 -17 -20 -17 -75 l0 -69 -355 0 -355 0 -2 218 c-2
179 -3 191 -5 70 -3 -139 -5 -148 -23 -148 -53 0 -210 90 -210 120 0 24 64
153 109 219 71 104 117 122 196 80z m905 -525 c59 -148 72 -219 46 -260 -19
-28 -94 -66 -187 -94 l-58 -18 -3 57 c-2 36 -8 -4 -17 -116 l-14 -173 -423 0
-424 0 -4 23 c-3 12 -12 114 -21 227 -8 113 -18 229 -21 258 l-6 52 472 0 472
0 -5 -107 c-3 -60 -3 -99 -1 -88 3 11 25 32 50 48 53 32 54 21 -21 185 l-54
115 67 43 67 43 17 -33 c9 -18 40 -91 68 -162z m-1043 106 c21 0 24 -19 12
-79 l-11 -60 -47 -3 c-53 -3 -50 13 -37 -193 7 -120 7 -120 -13 -97 -10 12
-23 22 -28 22 -5 0 -24 16 -43 35 -25 26 -34 43 -33 68 1 32 39 202 69 303
l15 53 52 -25 c29 -13 57 -24 64 -24z m57 -26 c3 -9 6 -38 6 -65 0 -46 -2 -49
-25 -49 -29 0 -29 -1 -14 73 12 58 22 70 33 41z m819 -106 l56 -123 -32 -27
c-17 -16 -35 -28 -39 -28 -5 0 -5 38 -2 85 l7 85 -37 0 -36 0 0 58 c0 56 5 72
20 72 4 0 32 -55 63 -122z m-962 -328 c29 -16 25 -50 -6 -50 -21 0 -25 5 -25
30 0 33 3 35 31 20z m1377 -16 c52 -11 15 -21 -73 -21 -115 1 -129 17 -25 29
25 3 55 1 98 -8z m-198 -9 c-8 -10 -11 -35 -8 -70 3 -30 1 -55 -4 -55 -10 0
-11 124 -1 133 13 14 25 6 13 -8z m-1247 -40 c-3 -9 -8 -14 -10 -11 -3 3 -2 9
2 15 9 16 15 13 8 -4z m1372 -5 c30 0 65 4 79 10 l26 10 0 -90 c0 -88 -1 -91
-26 -100 -14 -6 -49 -10 -79 -10 -30 0 -65 4 -79 10 -25 9 -26 12 -26 100 l0
90 26 -10 c14 -6 49 -10 79 -10z m-1281 -47 c4 -32 10 -83 14 -113 l7 -55 424
0 424 0 8 25 c4 14 11 64 14 113 l7 87 114 0 114 0 0 -45 c0 -34 5 -47 20 -55
14 -7 20 -21 20 -44 0 -25 6 -35 25 -44 33 -15 147 -15 180 0 24 11 25 15 25
100 l0 89 38 -3 c36 -3 38 -6 79 -88 78 -158 116 -249 110 -264 -6 -14 -123
-16 -1157 -16 -946 0 -1152 2 -1156 13 -6 16 100 250 116 255 6 2 10 -13 10
-36 0 -26 5 -42 15 -46 8 -3 15 -1 15 4 0 6 -4 10 -10 10 -5 0 -10 11 -10 25
l0 25 178 1 c97 1 180 1 185 0 4 0 7 2 7 7 0 4 -83 6 -185 4 -195 -3 -224 4
-136 33 38 12 80 15 180 13 72 -2 131 0 131 5 0 4 -87 8 -192 9 -148 1 -175 3
-118 8 41 4 144 8 228 9 129 1 152 -1 152 -14 0 -10 -11 -16 -32 -16 -31 -2
-31 -2 -5 -6 33 -5 37 -32 5 -34 l-23 -2 23 -4 c18 -4 22 -11 22 -38 l0 -35
-197 -3 -198 -2 203 -3 203 -2 36 76 c19 42 32 85 30 95 -4 15 0 19 23 19 27
0 29 -2 34 -57z m1163 10 c-3 -10 -5 -2 -5 17 0 19 2 27 5 18 2 -10 2 -26 0
-35z m-1751 2 c4 -9 19 -15 36 -15 37 0 28 -16 -14 -25 -26 -6 -35 -3 -50 15
-10 12 -18 26 -18 31 0 15 40 10 46 -6z m497 -51 c-15 -30 -29 -50 -31 -44 -5
13 39 100 50 100 4 0 -4 -25 -19 -56z m957 -114 c0 -7 -147 -10 -420 -10 -273
0 -420 3 -420 10 0 7 147 10 420 10 273 0 420 -3 420 -10z m-883 -255 c-53
-37 -127 -66 -155 -63 -16 2 -29 15 -42 46 l-19 42 127 0 127 0 -38 -25z m383
6 c0 -30 -9 -30 -85 -6 l-70 23 78 1 c70 1 77 -1 77 -18z m134 -18 c-17 -48
-17 -80 -1 -86 17 -8 -84 -8 -110 -1 -25 7 -29 32 -17 93 l7 31 67 0 68 0 -14
-37z m-715 -27 c11 -27 11 -28 -11 -22 -13 3 -26 6 -29 6 -14 0 -18 32 -8 52
9 17 13 18 23 7 7 -8 18 -27 25 -43z m521 20 c41 -12 46 -17 51 -51 l6 -37
-36 6 c-20 3 -46 6 -58 6 -20 0 -23 5 -23 45 0 50 -2 50 60 31z m365 -13 c-38
-9 -41 -23 -10 -50 18 -14 21 -20 9 -14 -35 17 -48 39 -34 56 7 8 22 14 34 14
20 -1 20 -2 1 -6z m-468 -110 c-3 -10 -5 -4 -5 12 0 17 2 24 5 18 2 -7 2 -21
0 -30z m568 6 c22 -10 29 -16 15 -13 -28 7 -80 33 -65 33 6 0 28 -9 50 -20z
m90 -29 c13 -5 14 -9 5 -9 -8 0 -24 4 -35 9 -13 5 -14 9 -5 9 8 0 24 -4 35 -9z
m-668 -47 c-3 -10 -5 -2 -5 17 0 19 2 27 5 18 2 -10 2 -26 0 -35z m690 -630
c-1 -120 -2 -24 -2 212 0 237 1 335 2 218 2 -116 2 -310 0 -430z m-700 560
c-3 -10 -5 -2 -5 17 0 19 2 27 5 18 2 -10 2 -26 0 -35z m-12 -78 c-4 -25 -9
-44 -12 -41 -2 2 -1 25 2 51 4 25 9 44 12 41 2 -2 1 -25 -2 -51z m-18 -77 c-3
-8 -6 -5 -6 6 -1 11 2 17 5 13 3 -3 4 -12 1 -19z m-10 -40 c-3 -8 -6 -5 -6 6
-1 11 2 17 5 13 3 -3 4 -12 1 -19z m22 -87 c-6 -18 -13 -30 -15 -28 -2 2 1 18
7 36 6 18 13 30 15 28 2 -2 -1 -18 -7 -36z m-49 2 c0 -5 -10 -19 -21 -33 l-21
-25 18 33 c18 32 24 38 24 25z m2 -100 c-11 -15 -30 -37 -43 -48 -13 -11 -7 0
14 24 20 25 37 49 37 54 0 6 3 8 6 4 3 -3 -3 -18 -14 -34z m163 -144 c9 -44
10 -69 3 -82 -23 -44 -155 -73 -221 -48 -15 6 -34 30 -50 65 -32 67 -33 75 -8
52 35 -31 150 -18 220 25 14 9 21 24 21 43 0 48 20 16 35 -55z m-245 -236 c0
-59 -2 -104 -4 -102 -8 9 -13 218 -5 213 5 -3 9 -53 9 -111z m234 55 c5 -25 6
-53 3 -62 -8 -19 -48 -21 -66 -3 -11 10 -13 9 -9 -3 6 -19 54 -25 73 -10 8 6
15 24 18 38 3 24 4 25 12 8 7 -16 -5 -173 -21 -284 l-5 -34 -50 7 c-28 4 -49
3 -49 -2 0 -5 8 -10 18 -10 58 1 73 -4 70 -19 -10 -53 -79 -38 -98 21 -11 33
-9 44 24 125 42 105 43 116 15 125 -16 6 -20 13 -16 33 3 17 -2 39 -15 60 -11
18 -19 34 -17 36 7 6 84 24 94 22 6 -2 14 -23 19 -48z"/>
<path d="M3039 3868 c-12 -23 -12 -23 10 -4 23 21 26 26 11 26 -5 0 -15 -10
-21 -22z"/>
<path d="M2884 3788 c9 -5 23 -5 32 0 12 6 7 9 -16 9 -23 0 -28 -3 -16 -9z"/>
<path d="M3085 3790 c-3 -6 1 -7 9 -4 18 7 21 14 7 14 -6 0 -13 -4 -16 -10z"/>
<path d="M3112 3600 c0 -19 2 -27 5 -17 2 9 2 25 0 35 -3 9 -5 1 -5 -18z"/>
<path d="M2652 3565 c0 -16 2 -22 5 -12 2 9 2 23 0 30 -3 6 -5 -1 -5 -18z"/>
<path d="M2682 3520 c0 -19 2 -27 5 -17 2 9 2 25 0 35 -3 9 -5 1 -5 -18z"/>
<path d="M2711 3534 c0 -11 3 -14 6 -6 3 7 2 16 -1 19 -3 4 -6 -2 -5 -13z"/>
<path d="M3102 3520 c0 -14 2 -19 5 -12 2 6 2 18 0 25 -3 6 -5 1 -5 -13z"/>
<path d="M3351 3464 c0 -11 3 -14 6 -6 3 7 2 16 -1 19 -3 4 -6 -2 -5 -13z"/>
<path d="M2691 3434 c0 -11 3 -14 6 -6 3 7 2 16 -1 19 -3 4 -6 -2 -5 -13z"/>
<path d="M2947 3419 c12 -12 24 -21 27 -18 2 2 -8 13 -22 23 l-27 19 22 -24z"/>
<path d="M3059 3423 c-13 -16 -12 -17 4 -4 16 13 21 21 13 21 -2 0 -10 -8 -17
-17z"/>
<path d="M3341 3414 c0 -11 3 -14 6 -6 3 7 2 16 -1 19 -3 4 -6 -2 -5 -13z"/>
<path d="M2998 3393 c7 -3 16 -2 19 1 4 3 -2 6 -13 5 -11 0 -14 -3 -6 -6z"/>
<path d="M2701 3374 c0 -11 3 -14 6 -6 3 7 2 16 -1 19 -3 4 -6 -2 -5 -13z"/>
<path d="M3300 3220 c-6 -11 -8 -20 -6 -20 3 0 10 9 16 20 6 11 8 20 6 20 -3
0 -10 -9 -16 -20z"/>
<path d="M2912 2844 c-28 -19 -29 -57 -2 -84 38 -38 141 -17 139 28 0 14 -2
14 -6 2 -21 -60 -143 -50 -143 13 0 46 91 66 130 27 11 -11 20 -16 20 -12 0
38 -96 56 -138 26z"/>
<path d="M1230 4141 c-6 -12 -10 -95 -10 -201 0 -106 4 -189 10 -201 10 -18
27 -19 513 -19 378 0 506 3 515 12 17 17 17 399 0 416 -9 9 -137 12 -515 12
-486 0 -503 -1 -513 -19z m101 -77 c-27 -34 -26 -50 2 -65 19 -11 20 -10 9 3
-16 20 -5 48 19 48 40 0 34 -61 -5 -68 -21 -5 -56 25 -56 47 0 20 28 61 41 61
6 0 1 -12 -10 -26z m106 8 c-22 -25 -22 -68 1 -77 13 -5 14 -3 6 5 -19 19 -5
52 20 48 26 -4 33 -40 11 -58 -25 -20 -65 2 -65 36 0 24 24 64 38 64 3 0 -2
-8 -11 -18z m703 -62 c0 -6 -105 -10 -295 -10 -190 0 -295 4 -295 10 0 6 105
10 295 10 190 0 295 -4 295 -10z m5 -50 c4 -7 -97 -10 -294 -10 -194 0 -301 4
-301 10 0 6 105 10 294 10 186 0 297 -4 301 -10z m0 -50 c4 -7 -97 -10 -294
-10 -194 0 -301 4 -301 10 0 6 105 10 294 10 186 0 297 -4 301 -10z m-4 -51
c8 -5 -107 -9 -291 -9 -205 0 -300 4 -290 10 19 13 561 12 581 -1z"/>
<path d="M4053 3525 c-44 -19 -48 -42 -46 -230 3 -158 3 -160 28 -182 15 -13
33 -23 41 -23 8 0 14 -3 14 -6 0 -15 -43 -75 -67 -94 l-26 -20 25 0 c33 0 116
42 165 85 l41 35 206 0 c199 0 206 1 231 23 l27 22 -1 173 c0 101 -4 180 -11
191 -18 34 -74 41 -340 41 -196 -1 -262 -4 -287 -15z m187 -180 c19 -23 8 -50
-20 -50 -16 0 -26 6 -28 18 -4 18 14 47 28 47 4 0 13 -7 20 -15z m150 -15 c0
-36 -33 -53 -58 -28 -16 16 -15 23 4 42 12 12 20 13 35 6 10 -6 19 -15 19 -20z
m124 14 c22 -21 3 -56 -27 -52 -25 3 -34 32 -17 53 16 19 25 19 44 -1z"/>
<path d="M1910 3474 c-80 -35 -132 -114 -133 -204 -2 -213 257 -312 394 -151
73 84 78 189 13 282 -53 77 -184 112 -274 73z m165 -43 c72 -33 105 -86 105
-168 0 -156 -184 -237 -299 -133 -151 139 8 387 194 301z"/>
<path d="M1990 3335 l0 -75 55 0 c30 0 55 5 55 10 0 6 -20 10 -45 10 l-45 0 0
65 c0 37 -4 65 -10 65 -6 0 -10 -32 -10 -75z"/>
<path d="M3890 3289 c0 -11 -5 -30 -11 -42 -10 -21 -10 -21 5 -3 15 18 22 66
11 66 -3 0 -5 -9 -5 -21z"/>
<path d="M3778 3181 c-53 -34 -68 -56 -68 -101 0 -38 19 -77 55 -110 14 -13
35 -39 47 -58 19 -31 19 -33 2 -60 -10 -15 -25 -32 -33 -39 -9 -7 -11 -13 -5
-13 13 0 49 39 57 63 9 23 -13 64 -53 102 -41 39 -60 76 -60 118 0 37 22 63
87 103 21 13 33 24 27 24 -5 0 -31 -13 -56 -29z"/>
<path d="M3770 3051 c0 -17 4 -32 8 -35 4 -2 6 11 4 30 -5 42 -12 45 -12 5z"/>
<path d="M3843 2942 c43 -44 48 -84 15 -119 -12 -13 -16 -23 -10 -23 18 0 42
42 42 75 0 20 -12 42 -35 68 -20 20 -38 37 -42 37 -4 0 10 -17 30 -38z"/>
<path d="M3954 1720 c0 -96 2 -136 3 -87 2 48 2 126 0 175 -1 48 -3 8 -3 -88z"/>
<path d="M4044 1640 c0 -96 2 -136 3 -87 2 48 2 126 0 175 -1 48 -3 8 -3 -88z"/>
<path d="M4057 1120 c2 -179 8 -329 13 -334 5 -5 16 -6 24 -3 14 6 16 44 14
334 l-3 328 -2 -327 c-3 -282 -5 -328 -18 -328 -12 0 -15 22 -16 128 -1 70 -5
217 -9 327 -6 154 -7 125 -3 -125z"/>
</g>
</svg>
