<?xml version="1.0" standalone="no"?>
<!DOCTYPE svg PUBLIC "-//W3C//DTD SVG 20010904//EN"
 "http://www.w3.org/TR/2001/REC-SVG-20010904/DTD/svg10.dtd">
<svg version="1.0" xmlns="http://www.w3.org/2000/svg"
 width="342.000000pt" height="200.000000pt" viewBox="0 0 342.000000 200.000000"
 preserveAspectRatio="xMidYMid meet">

<g transform="translate(0.000000,200.000000) scale(0.100000,-0.100000)"
fill="#000000" stroke="none">
<path d="M2695 1940 c-71 -11 -117 -32 -169 -80 -62 -57 -81 -103 -115 -271
-36 -178 -53 -223 -84 -215 -12 3 -43 6 -68 6 l-46 0 -23 61 c-12 33 -36 77
-54 97 -46 52 -72 93 -79 123 -4 14 -43 61 -88 103 -146 141 -274 181 -551
173 -140 -4 -176 -8 -253 -31 -267 -80 -430 -222 -550 -480 -48 -101 -68 -176
-64 -231 3 -31 -1 -38 -28 -55 -35 -21 -51 -69 -39 -116 7 -26 6 -26 -31 -19
-20 4 -65 19 -100 35 -34 16 -65 25 -68 20 -3 -5 1 -25 9 -45 45 -106 155
-187 300 -220 l29 -6 -7 -75 c-7 -87 -46 -212 -105 -336 -46 -97 -50 -124 -20
-161 51 -66 256 -126 361 -107 56 11 108 53 108 88 0 16 10 18 87 17 101 0
171 21 203 62 16 21 20 41 20 112 l0 86 123 2 c107 2 204 14 301 39 l29 7 -5
-84 c-3 -46 -14 -124 -24 -173 l-17 -89 26 -23 c42 -36 99 -47 222 -41 154 7
235 40 247 101 2 14 22 26 68 41 86 29 119 47 154 84 37 38 36 63 -4 193 -37
119 -70 195 -112 261 l-30 47 25 39 c28 43 26 42 142 66 374 80 670 306 715
545 12 60 5 132 -16 194 -17 47 -17 49 -1 40 29 -18 -102 122 -143 152 -75 55
-177 79 -275 64z m-1259 -64 c-11 -97 -42 -179 -74 -198 -33 -20 -210 -83
-259 -93 -38 -8 -110 26 -196 92 -57 44 -71 80 -19 48 l27 -16 -24 21 c-28 24
-33 20 68 77 120 68 303 121 425 122 l59 1 -7 -54z m193 43 c148 -24 240 -71
354 -183 109 -108 93 -141 -111 -215 -146 -53 -171 -50 -302 39 -96 65 -140
113 -140 154 0 35 28 195 36 208 7 11 87 10 163 -3z m1246 -9 c28 -9 49 -22
48 -27 -1 -6 14 -25 35 -44 20 -19 30 -25 22 -14 -8 11 -24 28 -35 37 -13 11
-15 17 -7 18 7 0 34 -20 60 -44 43 -41 44 -44 19 -39 -42 8 -32 -11 14 -27 36
-13 44 -22 60 -65 21 -55 25 -81 7 -50 -34 62 -91 71 -144 22 -29 -26 -37 -42
-41 -80 -5 -37 -9 -47 -22 -43 -52 14 -76 16 -107 10 -55 -10 -39 -19 34 -19
55 0 75 -5 114 -27 25 -15 55 -40 66 -55 17 -23 21 -25 37 -12 42 35 66 64 74
93 l9 31 1 -38 c1 -42 -29 -141 -58 -188 l-19 -31 -13 23 c-14 28 -28 39 -48
39 -11 0 -9 -4 4 -14 16 -12 17 -16 6 -29 -39 -48 -163 -52 -257 -8 -107 50
-240 152 -158 120 15 -5 29 -7 32 -5 7 8 -45 26 -72 26 -12 0 -31 -7 -42 -16
-18 -15 -18 -15 3 -9 50 14 99 -52 138 -188 22 -78 69 -127 120 -127 33 0 46
8 111 74 100 100 144 133 154 115 17 -27 -57 -102 -182 -185 -164 -110 -423
-195 -597 -198 -63 -1 -75 2 -72 14 3 8 18 67 34 129 26 103 33 119 68 153 41
40 96 140 122 223 9 28 25 102 37 166 32 174 80 243 197 289 63 25 180 25 248
0z m-1985 -241 c30 -22 74 -59 98 -82 39 -38 42 -45 42 -92 0 -62 -26 -208
-43 -244 -15 -32 -102 -80 -209 -115 -105 -35 -129 -34 -178 10 -37 33 -39 38
-35 81 10 99 52 204 129 322 44 69 122 161 135 161 4 0 31 -18 61 -41z m2153
20 c73 -33 75 -170 2 -209 -19 -10 -29 -7 -73 27 -41 30 -52 44 -52 66 0 42
28 95 59 112 32 17 34 18 64 4z m-1588 -70 c96 -61 206 -151 216 -177 12 -31
-2 -150 -28 -245 -20 -72 -49 -95 -190 -143 -137 -47 -164 -45 -255 15 -40 27
-94 68 -120 90 -40 36 -47 47 -50 88 -5 58 18 216 36 252 23 43 47 59 157 100
163 61 169 61 234 20z m614 -65 c45 -9 84 -52 109 -120 12 -32 20 -59 19 -59
-1 0 -21 -13 -44 -28 -52 -33 -85 -81 -113 -167 -22 -67 -77 -178 -108 -218
l-17 -22 -64 37 c-34 21 -89 63 -122 93 -58 55 -59 56 -59 112 0 70 24 197 44
237 13 23 32 36 98 61 46 17 108 42 138 55 61 26 73 28 119 19z m258 -192 c19
-12 -34 -92 -63 -92 -38 0 -70 -54 -98 -168 -39 -157 -94 -242 -211 -322 -132
-91 -431 -139 -745 -119 -342 21 -488 67 -612 190 -87 87 -128 219 -84 268 28
31 56 28 56 -7 0 -78 109 -216 210 -265 183 -89 577 -112 880 -51 158 31 213
57 263 125 53 70 111 180 137 259 33 99 63 138 135 171 41 19 110 25 132 11z
m-1282 -210 c44 -22 146 -100 177 -136 32 -36 36 -83 16 -178 -14 -66 -2 -62
-149 -48 -199 20 -329 71 -412 159 -84 90 -66 113 130 176 81 26 153 48 158
50 13 4 43 -4 80 -23z m628 -83 c42 -22 185 -120 202 -139 15 -17 16 -22 4
-36 -45 -55 -328 -114 -547 -114 l-84 0 7 43 c14 84 27 126 48 145 12 10 72
36 132 57 61 20 117 41 125 46 22 12 88 11 113 -2z m-1219 -74 c27 -6 40 -14
47 -32 11 -29 58 -99 90 -132 l23 -24 -38 6 c-90 15 -209 98 -256 180 -16 28
-30 55 -30 59 0 4 28 -6 63 -22 35 -15 80 -32 101 -35z m1760 -107 l49 -3 -49
-54 c-26 -29 -72 -71 -101 -93 l-54 -39 -29 24 -29 25 24 16 c13 9 43 41 66
71 31 42 39 59 34 77 l-7 23 23 -22 c16 -15 40 -23 73 -25z m-1546 -143 c42
-39 128 -79 231 -105 l94 -24 -7 -93 c-9 -125 -44 -333 -62 -360 -9 -14 -31
-25 -67 -33 -134 -27 -377 61 -377 137 0 11 14 48 31 83 75 155 119 294 119
378 0 23 2 42 5 42 3 0 18 -11 33 -25z m1588 -36 c23 -47 94 -248 94 -268 0
-5 -13 -11 -28 -14 -16 -3 -39 -15 -53 -27 l-24 -21 35 21 c42 24 63 25 80 5
11 -13 8 -21 -15 -45 -16 -16 -38 -33 -49 -36 -12 -4 -38 -17 -58 -30 l-37
-23 -6 57 c-12 103 -43 229 -69 280 l-25 49 62 51 c34 28 63 52 64 52 2 0 14
-23 29 -51z m-226 -16 c42 -47 73 -118 94 -213 23 -104 36 -260 24 -283 -12
-22 -94 -61 -113 -53 -8 3 -15 1 -17 -4 -2 -5 -46 -12 -98 -16 -75 -5 -108 -3
-153 10 -75 22 -82 36 -60 128 18 78 25 302 10 349 -8 25 -7 26 75 48 46 12
106 32 133 45 28 14 55 25 61 25 7 1 27 -16 44 -36z m-320 -116 c7 -21 10 -40
7 -43 -15 -15 -164 -36 -297 -41 -119 -4 -177 -2 -250 11 -149 26 -157 30
-162 77 l-4 40 91 -8 c124 -11 501 -8 550 4 47 12 49 10 65 -40z m-588 -108
c35 -6 68 -13 74 -14 14 -4 10 -163 -5 -178 -11 -11 -191 -37 -191 -28 0 3 7
44 15 91 8 47 15 100 15 119 0 25 4 32 15 28 8 -4 42 -11 77 -18z m1268 -103
c0 -2 -8 -10 -17 -17 -16 -13 -17 -12 -4 4 13 16 21 21 21 13z"/>
<path d="M920 1706 c0 -2 8 -10 18 -17 15 -13 16 -12 3 4 -13 16 -21 21 -21
13z"/>
<path d="M1450 1686 c0 -2 8 -10 18 -17 15 -13 16 -12 3 4 -13 16 -21 21 -21
13z"/>
<path d="M1505 1640 c10 -11 20 -20 23 -20 3 0 -3 9 -13 20 -10 11 -20 20 -23
20 -3 0 3 -9 13 -20z"/>
<path d="M1708 1523 c6 -2 18 -2 25 0 6 3 1 5 -13 5 -14 0 -19 -2 -12 -5z"/>
<path d="M2564 1824 c-41 -27 -93 -82 -94 -99 0 -5 21 12 48 37 26 26 59 52
75 57 15 6 27 15 27 21 0 16 -14 12 -56 -16z"/>
<path d="M2563 1754 c-43 -22 -78 -92 -69 -142 7 -47 33 -82 79 -107 34 -19
37 -19 71 -2 100 47 101 204 2 251 -41 19 -43 19 -83 0z m106 -34 c53 -53 53
-129 1 -181 -60 -60 -147 -18 -157 75 -13 112 84 178 156 106z"/>
<path d="M2569 1653 c-13 -17 -13 -17 4 -4 21 17 43 2 34 -23 -7 -17 -37 -22
-37 -6 0 6 -4 10 -9 10 -12 0 -1 -49 13 -57 17 -11 50 -11 64 -1 13 11 16 56
4 75 -14 22 -57 26 -73 6z"/>
<path d="M3020 1755 c0 -5 5 -17 10 -25 5 -8 10 -10 10 -5 0 6 -5 17 -10 25
-5 8 -10 11 -10 5z"/>
<path d="M2764 1509 c-10 -17 13 -36 27 -22 12 12 4 33 -11 33 -5 0 -12 -5
-16 -11z"/>
<path d="M2950 1475 c0 -8 5 -15 10 -15 6 0 10 7 10 15 0 8 -4 15 -10 15 -5 0
-10 -7 -10 -15z"/>
<path d="M3026 1405 c-9 -26 -7 -32 5 -12 6 10 9 21 6 23 -2 3 -7 -2 -11 -11z"/>
<path d="M2592 1141 c6 -10 25 -27 42 -36 29 -17 28 -15 -8 19 -43 40 -52 45
-34 17z"/>
<path d="M2735 1110 c-3 -6 1 -7 9 -4 18 7 21 14 7 14 -6 0 -13 -4 -16 -10z"/>
<path d="M2660 1070 c-30 -16 -51 -29 -47 -30 10 0 107 49 107 55 0 7 1 7 -60
-25z"/>
<path d="M3014 1614 c8 -21 -11 -45 -29 -38 -10 4 -12 0 -8 -15 7 -29 59 -29
68 -1 8 26 -2 57 -21 64 -12 5 -15 2 -10 -10z"/>
<path d="M1282 1548 c-17 -17 -15 -65 4 -72 9 -3 31 -6 50 -6 19 0 34 -4 34
-9 0 -6 -39 -7 -94 -4 -92 6 -94 5 -110 -20 -48 -72 -24 -177 40 -177 20 0 24
5 24 28 0 15 7 38 16 50 15 21 22 23 104 20 59 -2 93 1 101 9 7 7 14 46 17 87
l5 74 -31 16 c-37 19 -143 21 -160 4z m46 -31 c2 -10 -3 -17 -12 -17 -18 0
-29 16 -21 31 9 14 29 6 33 -14z"/>
<path d="M2154 1278 l-29 -33 33 29 c30 28 37 36 29 36 -2 0 -16 -15 -33 -32z"/>
<path d="M370 947 c14 -16 34 -33 45 -39 21 -11 20 -10 -35 37 l-35 30 25 -28z"/>
<path d="M454 886 c11 -9 24 -16 30 -16 12 0 7 5 -24 19 -24 11 -24 11 -6 -3z"/>
<path d="M953 555 c0 -33 2 -45 4 -27 2 18 2 45 0 60 -2 15 -4 0 -4 -33z"/>
<path d="M942 430 c0 -14 2 -19 5 -12 2 6 2 18 0 25 -3 6 -5 1 -5 -13z"/>
<path d="M931 364 c0 -11 3 -14 6 -6 3 7 2 16 -1 19 -3 4 -6 -2 -5 -13z"/>
<path d="M921 314 c0 -11 3 -14 6 -6 3 7 2 16 -1 19 -3 4 -6 -2 -5 -13z"/>
<path d="M911 254 c0 -11 3 -14 6 -6 3 7 2 16 -1 19 -3 4 -6 -2 -5 -13z"/>
<path d="M892 195 c-7 -14 -27 -32 -45 -40 -17 -8 -26 -14 -19 -15 26 0 70 30
75 52 9 31 2 33 -11 3z"/>
<path d="M788 133 c7 -3 16 -2 19 1 4 3 -2 6 -13 5 -11 0 -14 -3 -6 -6z"/>
<path d="M2240 351 c0 -11 4 -22 9 -25 4 -3 6 6 3 19 -5 30 -12 33 -12 6z"/>
<path d="M1994 700 c9 -14 27 -45 41 -70 13 -25 24 -41 25 -37 0 13 -38 80
-61 107 l-21 25 16 -25z"/>
<path d="M2091 464 c0 -11 3 -14 6 -6 3 7 2 16 -1 19 -3 4 -6 -2 -5 -13z"/>
<path d="M2102 400 c0 -14 2 -19 5 -12 2 6 2 18 0 25 -3 6 -5 1 -5 -13z"/>
<path d="M2112 305 c0 -16 2 -22 5 -12 2 9 2 23 0 30 -3 6 -5 -1 -5 -18z"/>
<path d="M2120 216 c0 -8 -12 -24 -26 -35 -15 -12 -22 -21 -17 -21 15 0 53 39
53 55 0 8 -2 15 -5 15 -3 0 -5 -6 -5 -14z"/>
<path d="M1090 315 c-7 -9 -11 -17 -9 -20 3 -2 10 5 17 15 14 24 10 26 -8 5z"/>
</g>
</svg>
